<?xml version="1.0" encoding="UTF-8" standalone="no"?>
<!-- Created with Inkscape (http://www.inkscape.org/) -->

<svg
   width="173.31294mm"
   height="33.433411mm"
   viewBox="0 0 173.31294 33.433411"
   version="1.1"
   id="svg1"
   inkscape:version="1.4 (e7c3feb100, 2024-10-09)"
   sodipodi:docname="priscila-ribeiro.svg"
   xml:space="preserve"
   xmlns:inkscape="http://www.inkscape.org/namespaces/inkscape"
   xmlns:sodipodi="http://sodipodi.sourceforge.net/DTD/sodipodi-0.dtd"
   xmlns="http://www.w3.org/2000/svg"
   xmlns:svg="http://www.w3.org/2000/svg"><sodipodi:namedview
     id="namedview1"
     pagecolor="#ffffff"
     bordercolor="#000000"
     borderopacity="0.25"
     inkscape:showpageshadow="2"
     inkscape:pageopacity="0.0"
     inkscape:pagecheckerboard="0"
     inkscape:deskcolor="#d1d1d1"
     inkscape:document-units="mm"
     inkscape:zoom="0.47126122"
     inkscape:cx="569.7477"
     inkscape:cy="304.50203"
     inkscape:window-width="1440"
     inkscape:window-height="776"
     inkscape:window-x="0"
     inkscape:window-y="0"
     inkscape:window-maximized="1"
     inkscape:current-layer="layer1"><inkscape:page
       x="-4.1378115e-13"
       y="0"
       width="173.31296"
       height="33.433411"
       id="page2"
       margin="0"
       bleed="0" /></sodipodi:namedview><defs
     id="defs1" /><g
     inkscape:label="Camada 1"
     inkscape:groupmode="layer"
     id="layer1"
     transform="translate(-259.12499,-19.343667)"><path
       d="m 259.12501,52.777072 v -0.02621 z m 35.96204,-0.02621 v 0.02621 z M 290.50006,21.97868 c 0.75139,0.664022 1.17951,1.625107 1.28436,2.883254 0.0349,0.436857 -0.035,1.039719 -0.20969,1.808586 -0.15727,0.768868 -0.41065,1.633844 -0.76013,2.594929 -0.33201,0.961085 -0.78635,1.939643 -1.363,2.935676 -0.57665,0.996033 -1.21446,1.92217 -1.91343,2.778409 -0.69897,0.838765 -1.52899,1.546472 -2.49008,2.123123 -0.96109,0.576651 -1.96586,0.917399 -3.01431,1.022245 h -0.41938 c -0.89119,0 -1.69501,-0.227166 -2.41145,-0.681497 -0.69897,-0.454331 -1.24941,-1.013507 -1.65132,-1.677529 -0.33201,-0.541703 -0.49802,-0.996034 -0.49802,-1.362993 -0.34949,0.664022 -0.6815,1.354255 -0.99603,2.0707 -0.90866,2.62114 -1.37173,4.683104 -1.38921,6.185891 0,0.506753 0.12232,0.917398 0.36696,1.231935 0.0524,0.0699 0.0874,0.12232 0.10485,0.157269 0,0.05242 -0.0175,0.104843 -0.0524,0.157268 -0.10485,0.104846 -0.3058,0.157269 -0.60287,0.157269 -0.0349,0 -0.0611,-0.0087 -0.0786,-0.02621 -0.12232,0 -0.27085,-0.01747 -0.44559,-0.05242 -0.15727,-0.01747 -0.42813,-0.09611 -0.81256,-0.235902 -0.38443,-0.139794 -0.73392,-0.314537 -1.04845,-0.524228 -0.29707,-0.192217 -0.57666,-0.48928 -0.83877,-0.891188 -0.26211,-0.384434 -0.41938,-0.838765 -0.4718,-1.362993 -0.0524,-0.611599 0.035,-1.389203 0.26211,-2.332814 0.24464,-0.943611 0.52423,-1.834798 0.83877,-2.673563 0.31453,-0.838765 0.7776,-1.895958 1.3892,-3.171579 0.6116,-1.293096 1.10088,-2.297866 1.46784,-3.014311 0.36696,-0.733919 0.89119,-1.73869 1.57268,-3.014311 1.57269,-2.988099 2.43766,-4.796686 2.59493,-5.425759 -1.04845,0.192217 -2.3066,0.777604 -3.77444,1.756163 -1.46784,0.961085 -2.81336,2.096912 -4.03656,3.407482 -0.5417,0.576651 -1.05719,1.196987 -1.54647,1.86101 -0.47181,0.646547 -0.96109,1.415415 -1.46784,2.306603 -0.50675,0.891187 -0.88245,1.869746 -1.12709,2.935676 -0.24464,1.048456 -0.31454,2.088175 -0.20969,3.119157 0.0175,0.139794 0.0437,0.305799 0.0786,0.498016 0.0349,0.174743 0.0873,0.419383 0.15726,0.73392 0.0699,0.314537 0.17475,0.611599 0.31454,0.891187 0.13979,0.279589 0.29706,0.567914 0.47181,0.864976 0.19221,0.279589 0.42811,0.524229 0.7077,0.73392 0.27959,0.192217 0.59413,0.323273 0.94361,0.39317 l 0.0262,0.02621 0.0262,0.02621 c 0,0.104846 -0.0437,0.218429 -0.13106,0.340748 -0.31453,0.36696 -0.83876,0.576651 -1.57268,0.629074 -1.11835,0.08737 -2.14934,-0.227165 -3.09295,-0.94361 -1.29309,-0.978559 -2.04449,-2.533769 -2.25418,-4.665629 -0.0699,-0.751394 0.0349,-1.563947 0.31454,-2.43766 0.27959,-0.891188 0.62907,-1.712479 1.04845,-2.463872 0.43686,-0.768868 0.95235,-1.55521 1.54648,-2.359026 0.6116,-0.821291 1.14456,-1.485313 1.59889,-1.992066 0.47181,-0.524228 0.94361,-1.022245 1.41542,-1.49405 1.74743,-1.799849 3.52106,-3.293899 5.32091,-4.482149 1.79985,-1.205725 3.25022,-1.86101 4.35109,-1.965855 0.40191,-0.05242 0.78635,0.04369 1.15331,0.288325 0.36695,0.227165 0.66401,0.515491 0.89118,0.864976 0.26211,0.12232 0.50675,0.314537 0.73392,0.576651 0.24464,0.24464 0.38443,0.480543 0.41938,0.707708 0.12232,0.751393 -0.33201,2.428923 -1.36299,5.032589 0.0699,-0.08737 0.11359,-0.139794 0.13106,-0.157269 0.87371,-1.118353 1.77364,-2.096911 2.69977,-2.935676 0.92614,-0.838765 1.82607,-1.502788 2.69978,-1.992067 0.89119,-0.489279 1.72121,-0.777605 2.49008,-0.864976 0.97856,-0.12232 1.85227,0.24464 2.62114,1.100879 z m -3.43369,9.200201 c 1.04845,-1.537735 1.78237,-3.040522 2.20175,-4.508361 0.41939,-1.467838 0.46307,-2.725985 0.13106,-3.774441 -0.22717,-0.104846 -0.53297,-0.139795 -0.9174,-0.104846 -0.55917,0.0699 -1.17951,0.279589 -1.86101,0.629074 -0.66402,0.332011 -1.36299,0.795079 -2.09691,1.389204 -0.73392,0.576651 -1.46784,1.24941 -2.20176,2.018278 -1.85227,1.974592 -3.52106,4.333618 -5.00637,7.077077 0.0699,-0.03495 0.14853,-0.05242 0.2359,-0.05242 h 0.0524 l 0.13106,0.02621 0.0524,0.104846 c 0.0349,0.05242 0.0961,0.148528 0.18348,0.288325 0.13979,0.279588 0.26211,0.498016 0.36696,0.655285 0.12232,0.157269 0.3058,0.349486 0.55044,0.576651 0.24464,0.209691 0.55918,0.358222 0.94361,0.445593 0.40191,0.08737 0.87371,0.12232 1.41542,0.104846 0.50675,-0.03495 1.09214,-0.262112 1.75616,-0.681496 0.68149,-0.419383 1.37173,-0.996034 2.0707,-1.729953 0.71645,-0.733919 1.38047,-1.555209 1.99207,-2.463871 z m 9.20018,0.550439 c 0.85624,-0.01747 1.39794,0.148532 1.62511,0.498017 0.0699,0.104845 0.11358,0.235902 0.13105,0.393171 0.0349,0.139794 0.0524,0.279588 0.0524,0.419382 0,0.139794 -0.0262,0.323274 -0.0786,0.55044 -0.0349,0.209691 -0.0786,0.39317 -0.13106,0.550439 -0.0349,0.139794 -0.10483,0.340748 -0.20969,0.602862 -0.0874,0.24464 -0.15726,0.445594 -0.20969,0.602862 -0.0524,0.139794 -0.13977,0.349485 -0.26211,0.629074 -0.10485,0.279588 -0.18348,0.480542 -0.23591,0.602862 -0.10484,0.262114 -0.20095,0.489279 -0.28832,0.681496 -0.0699,0.192217 -0.15727,0.436857 -0.26211,0.73392 -0.0874,0.279588 -0.16601,0.51549 -0.23591,0.707707 -0.0524,0.192217 -0.0961,0.384434 -0.13105,0.576651 -0.0349,0.192217 -0.0437,0.332012 -0.0262,0.419383 0.0349,0.08737 0.0961,0.131057 0.18348,0.131057 0.17475,-0.01747 0.33202,-0.0699 0.47181,-0.157269 0.0524,0.24464 0.009,0.515491 -0.13106,0.812554 -0.13979,0.279588 -0.32327,0.524228 -0.55044,0.733919 -0.22716,0.192217 -0.44559,0.305799 -0.65528,0.340748 -0.64655,0.12232 -1.20572,-0.113583 -1.67753,-0.707708 -0.24464,-0.279588 -0.39317,-0.620336 -0.4456,-1.022244 -0.0524,-0.419383 -0.0174,-0.917399 0.10485,-1.49405 0.13979,-0.576651 0.26211,-1.057193 0.36696,-1.441627 0.12232,-0.384434 0.31454,-0.917399 0.57665,-1.598896 0.0874,-0.244639 0.22717,-0.594124 0.41938,-1.048455 0.20969,-0.454331 0.35823,-0.812554 0.4456,-1.074668 0.10485,-0.262114 0.12231,-0.436857 0.0524,-0.524228 -0.0175,-0.03495 -0.0611,-0.05242 -0.13106,-0.05242 -0.31453,-0.01747 -0.62033,-0.06116 -0.9174,-0.131057 -0.40191,0.803817 -1.05719,2.559981 -1.96585,5.268492 -0.13979,0.419382 -0.24464,0.733919 -0.31454,0.94361 -0.0699,0.209691 -0.15726,0.454331 -0.26211,0.733919 -0.10485,0.279589 -0.19222,0.498017 -0.26212,0.655285 -0.0524,0.157269 -0.0961,0.270851 -0.13105,0.340748 -0.29707,0.541703 -0.69898,0.812554 -1.20573,0.812554 -0.13979,0 -0.27959,-0.01747 -0.41938,-0.05242 -0.27959,-0.08737 -0.52423,-0.218428 -0.73392,-0.393171 -0.22717,-0.192217 -0.34075,-0.349485 -0.34075,-0.471805 0.0175,-0.05242 0.0611,-0.08737 0.13106,-0.104846 0.68149,-0.12232 1.87848,-2.691037 3.59096,-7.706151 0.15727,-0.489279 0.24464,-0.760131 0.26212,-0.812554 0.0175,-0.03495 0.0349,-0.07863 0.0524,-0.131057 -0.34949,-0.401908 -0.56792,-0.899924 -0.65529,-1.494049 -0.10484,-0.768868 0.009,-1.537736 0.34075,-2.306603 0.33201,-0.768868 0.77761,-1.293096 1.33678,-1.572684 0.76887,-0.401909 1.47658,-0.209692 2.12313,0.57665 0.0175,0 0.0262,0.0087 0.0262,0.02621 0.0175,0.03495 0.0262,0.07863 0.0262,0.131057 0.0175,0.03495 0.0262,0.06989 0.0262,0.104845 0,0.01747 -0.009,0.02621 -0.0262,0.02621 -0.0175,0.104845 -0.10484,0.332011 -0.26211,0.681496 -0.71645,1.782375 -0.89993,2.944414 -0.55044,3.486116 0.22716,0.349485 0.68149,0.524228 1.36299,0.524228 z m 7.81101,-2.490083 c 0.71645,0.541703 0.89119,1.380468 0.52423,2.516295 -0.0524,0.209691 -0.27083,0.681496 -0.65528,1.415415 -0.43686,0.821291 -0.78635,1.502787 -1.04846,2.044489 -0.24464,0.541703 -0.5417,1.319308 -0.89119,2.332815 -0.34949,1.013507 -0.56791,1.948381 -0.65528,2.80462 -0.0175,0.139794 -0.0786,0.262114 -0.18348,0.366959 -0.0874,0.0699 -0.18348,0.113583 -0.28833,0.131057 h -0.0262 c -0.26211,0.08737 -0.51549,0.131057 -0.76013,0.131057 -0.38443,0 -0.71644,-0.113583 -0.99603,-0.340748 -0.64655,-0.524228 -0.83877,-1.459101 -0.57665,-2.80462 0.10484,-0.524228 0.4718,-1.43289 1.10087,-2.725985 0.15727,-0.36696 0.27959,-0.637811 0.36696,-0.812554 0.0874,-0.192217 0.20096,-0.463068 0.34075,-0.812553 0.15727,-0.349485 0.27085,-0.629074 0.34075,-0.838765 0.0874,-0.227165 0.17474,-0.498016 0.26211,-0.812553 0.10485,-0.332011 0.16601,-0.620337 0.18348,-0.864976 0.0349,-0.262114 0.0524,-0.532965 0.0524,-0.812554 0.0175,-0.279588 0,-0.550439 -0.0524,-0.812553 -0.0349,-0.174743 0.035,-0.323274 0.2097,-0.445594 0.19221,-0.157268 0.59412,-0.218428 1.20572,-0.18348 0.62907,0.03495 1.14456,0.209689 1.54647,0.524228 z m 1.33678,-6.814963 c 0.38443,0.209691 0.64655,0.489279 0.78635,0.838764 0.13979,0.332011 0.13979,0.690234 0,1.074668 -0.0524,0.104845 -0.18346,0.323274 -0.39318,0.655285 -0.78634,1.205724 -1.16204,2.061963 -1.12709,2.568717 0.0175,0.139794 -0.0437,0.262114 -0.18348,0.366959 -0.0699,0.0699 -0.14853,0.104846 -0.2359,0.104846 h -0.0262 c -0.0175,0 -0.0349,-0.0087 -0.0524,-0.02621 -0.40191,0.01747 -0.75139,-0.148532 -1.04846,-0.498017 -0.48928,-0.611599 -0.6116,-1.397941 -0.36696,-2.359026 0.0874,-0.297063 0.25338,-0.760131 0.49802,-1.389204 0.26211,-0.629073 0.48928,-1.083404 0.6815,-1.362993 0.15727,-0.174743 0.36696,-0.253377 0.62907,-0.235902 0.27959,0.01747 0.55917,0.104845 0.83876,0.262114 z m 10.85155,30.300377 h 0.0262 z m -3.77444,-25.608537 c 0.33201,0.227165 0.48927,0.550439 0.4718,0.969822 v 0.07863 l -0.0262,0.05242 c -0.36696,0.419382 -0.72518,1.100878 -1.07467,2.044489 -0.34948,0.926136 -0.48927,1.49405 -0.41938,1.703741 l 0.13106,0.05242 -0.0262,0.157268 c -0.0524,0.24464 -0.22714,0.36696 -0.52423,0.36696 -0.19222,0 -0.40191,-0.104846 -0.62907,-0.314537 -0.20969,-0.209691 -0.35823,-0.524228 -0.4456,-0.943611 -0.0524,-0.297062 0.11361,-0.908661 0.49802,-1.834797 -1.36299,1.258147 -2.0707,2.280391 -2.12312,3.066733 -0.0349,0.24464 0.0175,0.515491 0.15726,0.812554 0.15727,0.297062 0.31454,0.550439 0.47181,0.76013 0.15727,0.192217 0.40191,0.471806 0.73392,0.838765 0.41938,0.489279 0.73392,0.88245 0.94361,1.179513 0.22717,0.279588 0.44559,0.672759 0.65528,1.179513 0.20969,0.489279 0.28833,0.969822 0.23591,1.441627 -0.0349,0.541702 -0.34073,1.083404 -0.9174,1.625107 -0.57665,0.524227 -1.45037,0.847501 -2.62114,0.969821 h -0.47181 c -0.69897,0 -1.3892,-0.12232 -2.0707,-0.366959 -0.66402,-0.24464 -1.17077,-0.6116 -1.52026,-1.100879 -0.47181,-0.629073 -0.5417,-1.345518 -0.20969,-2.149335 0.0874,-0.227165 0.26212,-0.323274 0.52423,-0.288325 0.26211,0.01747 0.41938,0.14853 0.4718,0.393171 0.0699,0.349485 0.32328,0.620336 0.76013,0.812553 0.45433,0.192217 1.02225,0.279589 1.70374,0.262114 0.29707,-0.01747 0.66403,-0.104845 1.10088,-0.262114 0.45433,-0.174743 0.77761,-0.393171 0.96982,-0.655285 0.1398,-0.174743 0.18349,-0.375697 0.13106,-0.602862 -0.0524,-0.174743 -0.34072,-0.585388 -0.86497,-1.231936 -0.43686,-0.541702 -0.77761,-0.987296 -1.02225,-1.336781 -0.22717,-0.349485 -0.47181,-0.838765 -0.73392,-1.467838 -0.26211,-0.629074 -0.39317,-1.231936 -0.39317,-1.808587 0.0175,-0.506754 0.22716,-1.048456 0.62907,-1.625107 0.40191,-0.576651 0.87372,-1.083404 1.41542,-1.520261 0.5417,-0.436857 1.03098,-0.795079 1.46784,-1.074667 0.45433,-0.297063 0.78634,-0.48928 0.99603,-0.576651 0.31454,-0.104845 0.6116,-0.01747 0.89119,0.262114 h 0.0262 c 0.20969,-0.08737 0.4456,-0.04369 0.70771,0.131057 z m 5.66166,1.729952 c 1.60763,-0.524228 2.69978,-0.24464 3.27643,0.838765 0.26211,0.559177 0.35822,1.179513 0.28832,1.861009 -0.0524,0.681497 -0.20967,1.127091 -0.4718,1.336782 -0.12232,0.08737 -0.24464,0.09611 -0.36696,0.02621 -0.13979,-0.0699 -0.19222,-0.288325 -0.15727,-0.655285 0.0874,-0.891187 0.009,-1.424152 -0.2359,-1.598895 -0.24464,-0.157269 -0.6815,-0.0699 -1.31057,0.262114 -1.13583,0.594125 -2.07071,1.660055 -2.80462,3.197791 -0.71645,1.537735 -1.01351,2.909465 -0.89119,4.115189 0.0874,0.856239 0.38444,1.354256 0.89119,1.49405 0.52423,0.139794 1.14456,-0.104846 1.86101,-0.733919 0.73391,-0.646548 1.31056,-1.528999 1.72995,-2.647352 0.0699,-0.192217 0.20095,-0.244639 0.39317,-0.157268 0.20969,0.0699 0.27959,0.200954 0.20969,0.393171 -0.12232,0.314537 -0.26211,0.637811 -0.41938,0.969822 -0.13979,0.314537 -0.35822,0.707708 -0.65529,1.179513 -0.27959,0.471805 -0.57665,0.891188 -0.89119,1.258147 -0.29706,0.349485 -0.67276,0.655285 -1.12709,0.917399 -0.45433,0.244639 -0.90866,0.366959 -1.36299,0.366959 -0.26211,0 -0.53296,-0.03495 -0.81255,-0.104845 -0.5417,-0.157269 -1.01351,-0.436857 -1.41542,-0.838765 -0.38443,-0.401908 -0.68149,-0.899925 -0.89118,-1.49405 -0.20969,-0.594125 -0.32328,-1.258147 -0.34075,-1.992066 0,-1.06593 0.19222,-2.123123 0.57665,-3.171579 0.40191,-1.065931 1.03098,-2.04449 1.88722,-2.935677 0.85624,-0.891187 1.86975,-1.520261 3.04052,-1.88722 z m 9.33127,0.393171 c 0.71645,0.541703 0.89119,1.380468 0.52423,2.516295 -0.0524,0.209691 -0.27083,0.681496 -0.65528,1.415415 -0.43686,0.821291 -0.78635,1.502787 -1.04846,2.044489 -0.24464,0.541703 -0.5417,1.319308 -0.89119,2.332815 -0.34948,1.013507 -0.56791,1.948381 -0.65528,2.80462 -0.0175,0.139794 -0.0786,0.262114 -0.18348,0.366959 -0.0874,0.0699 -0.18348,0.113583 -0.28833,0.131057 h -0.0262 c -0.26211,0.08737 -0.51549,0.131057 -0.76013,0.131057 -0.38443,0 -0.71644,-0.113583 -0.99603,-0.340748 -0.64655,-0.524228 -0.83876,-1.459101 -0.57665,-2.80462 0.10485,-0.524228 0.47181,-1.43289 1.10088,-2.725985 0.15727,-0.36696 0.27959,-0.637811 0.36696,-0.812554 0.0874,-0.192217 0.20095,-0.463068 0.34074,-0.812553 0.15727,-0.349485 0.27086,-0.629074 0.34075,-0.838765 0.0874,-0.227165 0.17475,-0.498016 0.26212,-0.812553 0.10485,-0.332011 0.16601,-0.620337 0.18348,-0.864976 0.0349,-0.262114 0.0524,-0.532965 0.0524,-0.812554 0.0175,-0.279588 0,-0.550439 -0.0524,-0.812553 -0.0349,-0.174743 0.035,-0.323274 0.20969,-0.445594 0.19221,-0.157268 0.59412,-0.218428 1.20572,-0.18348 0.62907,0.03495 1.14456,0.209689 1.54647,0.524228 z m 1.33679,-6.814963 c 0.38443,0.209691 0.64655,0.489279 0.78634,0.838764 0.13979,0.332011 0.13979,0.690234 0,1.074668 -0.0524,0.104845 -0.18346,0.323274 -0.39317,0.655285 -0.78635,1.205724 -1.16204,2.061963 -1.12709,2.568717 0.0175,0.139794 -0.0437,0.262114 -0.18348,0.366959 -0.0699,0.0699 -0.14854,0.104846 -0.23591,0.104846 h -0.0262 c -0.0175,0 -0.0349,-0.0087 -0.0524,-0.02621 -0.40191,0.01747 -0.75139,-0.148532 -1.04846,-0.498017 -0.48927,-0.611599 -0.61159,-1.397941 -0.36696,-2.359026 0.0874,-0.297063 0.25338,-0.760131 0.49802,-1.389204 0.26211,-0.629073 0.48928,-1.083404 0.6815,-1.362993 0.15727,-0.174743 0.36696,-0.253377 0.62907,-0.235902 0.27959,0.01747 0.55918,0.104845 0.83877,0.262114 z m 6.57908,-0.864977 c 0.69897,0.559177 0.87372,1.406679 0.52423,2.542506 -0.0349,0.157269 -0.29705,0.838765 -0.78634,2.044489 -2.9881,7.49646 -4.587,12.231986 -4.79669,14.206579 -0.0175,0.139794 -0.0786,0.262114 -0.18348,0.366959 -0.0874,0.0699 -0.18348,0.113583 -0.28833,0.131057 h -0.0262 c -0.24464,0.08737 -0.48928,0.131057 -0.73392,0.131057 -0.40191,0 -0.74265,-0.113583 -1.02224,-0.340748 -0.62907,-0.524228 -0.81255,-1.459101 -0.55044,-2.80462 0.0874,-0.471805 0.59413,-1.922169 1.52026,-4.351092 0.41938,-1.100879 0.74265,-1.965855 0.96982,-2.594929 0.24464,-0.629073 0.55918,-1.502786 0.94361,-2.621139 0.40191,-1.135827 0.69898,-2.061964 0.89119,-2.778409 0.20969,-0.716445 0.3757,-1.432889 0.49802,-2.149334 0.12232,-0.733919 0.14852,-1.293096 0.0786,-1.67753 -0.0349,-0.174743 0.035,-0.314537 0.20969,-0.419382 0.19222,-0.174743 0.59413,-0.235903 1.20573,-0.18348 0.62907,0.03495 1.14456,0.200952 1.54647,0.498016 z m 8.2566,7.67994 c 0.71645,0.541703 0.89993,1.380468 0.55044,2.516295 -0.0524,0.209691 -0.27956,0.681496 -0.68149,1.415415 -0.41939,0.821291 -0.76014,1.502787 -1.02225,2.044489 -0.26211,0.541703 -0.56791,1.319308 -0.9174,2.332815 -0.33201,1.013507 -0.5417,1.948381 -0.62907,2.80462 -0.0175,0.139794 -0.0874,0.262114 -0.20969,0.366959 -0.0699,0.0699 -0.15727,0.113583 -0.26212,0.131057 h -0.0524 c -0.24464,0.08737 -0.48928,0.131057 -0.73392,0.131057 -0.40191,0 -0.74265,-0.113583 -1.02224,-0.340748 -0.59413,-0.489279 -0.79508,-1.319307 -0.60286,-2.490083 -0.76887,1.083405 -1.44163,1.826061 -2.01828,2.227969 -0.41939,0.314537 -0.89119,0.471805 -1.41542,0.471805 -0.27959,0 -0.53296,-0.05242 -0.76013,-0.157268 -0.68149,-0.262114 -1.10088,-0.812553 -1.25815,-1.651318 -0.24463,-1.258147 -0.14852,-2.594929 0.28833,-4.010344 0.43686,-1.415416 1.07467,-2.638615 1.91343,-3.669596 0.83877,-1.030982 1.71248,-1.721216 2.62114,-2.070701 0.96109,-0.349485 1.71248,-0.288325 2.25418,0.18348 0.52423,0.436857 0.79508,1.24941 0.81256,2.43766 0.27959,-0.978559 0.34075,-1.834798 0.18348,-2.568717 -0.0349,-0.174743 0.035,-0.323274 0.20969,-0.445594 0.19221,-0.157268 0.60286,-0.218428 1.23193,-0.18348 0.62907,0.03495 1.13583,0.209689 1.52026,0.524228 z m -4.03655,4.560784 c 0.0349,-0.104846 0.0961,-0.174743 0.18348,-0.209691 -0.0349,-0.05242 -0.0524,-0.122317 -0.0524,-0.209692 0.0524,-0.279588 0.0611,-0.664022 0.0262,-1.153301 -0.0349,-0.489279 -0.12231,-0.830028 -0.26212,-1.022245 -0.0699,-0.08737 -0.14853,-0.131057 -0.2359,-0.131057 h -0.10485 c -0.36695,0 -0.76012,0.192217 -1.17951,0.576651 -0.75139,0.698971 -1.41541,1.747427 -1.99206,3.145368 -0.55918,1.380467 -0.83003,2.533768 -0.81256,3.459905 0,0.279588 0.0437,0.541702 0.13106,0.786342 0.0874,0.227165 0.17474,0.358222 0.26211,0.393171 0.0349,0.01747 0.0961,0 0.18348,-0.05242 0.6116,-0.436857 1.28436,-1.144565 2.01828,-2.123124 0.75139,-0.978559 1.36299,-2.13186 1.8348,-3.459904 z m 11.89999,18.977053 v -0.02621 z m 39.50057,-0.02621 v 0.02621 z m -3.95792,-10.87773 c 0.34949,0.244639 0.55918,0.672759 0.62908,1.284358 0.0874,0.611599 0.0437,1.039719 -0.13106,1.284359 -0.15727,0.297063 -0.28832,0.532965 -0.39317,0.707708 -0.10485,0.174743 -0.29706,0.410645 -0.57665,0.707707 -0.27959,0.314537 -0.57665,0.559177 -0.89119,0.733919 -0.29706,0.174743 -0.69897,0.332011 -1.20572,0.471806 -0.50675,0.139794 -1.06593,0.209691 -1.67753,0.209691 -0.45433,0 -0.93488,-0.03495 -1.44163,-0.104846 -0.94361,-0.12232 -1.89596,-0.42812 -2.85704,-0.917399 -0.96109,-0.489279 -1.79112,-1.022244 -2.49009,-1.598895 -0.69897,-0.576651 -1.3892,-1.231936 -2.0707,-1.965855 -0.66402,-0.733919 -1.17077,-1.336781 -1.52026,-1.808586 -0.34949,-0.471805 -0.66402,-0.926136 -0.94361,-1.362993 -1.2232,-1.904695 -1.95712,-3.521065 -2.20176,-4.849109 -0.19221,0.384434 -0.37569,0.768868 -0.55043,1.153301 l -0.0786,0.157269 h -0.0262 c -1.01351,2.865779 -1.529,5.093748 -1.54647,6.683907 0,0.506753 0.11358,0.917398 0.34075,1.231935 0.0699,0.0699 0.10484,0.12232 0.10484,0.157269 0.0175,0.05242 0,0.104843 -0.0524,0.157268 -0.10485,0.104846 -0.29706,0.157269 -0.57665,0.157269 -0.0349,0 -0.0699,-0.0087 -0.10485,-0.02621 -0.10485,0 -0.24464,-0.01747 -0.41938,-0.05242 -0.15727,-0.01747 -0.43686,-0.09611 -0.83877,-0.235902 -0.38443,-0.139794 -0.73392,-0.314537 -1.04845,-0.524228 -0.29707,-0.192217 -0.57666,-0.48928 -0.83877,-0.891188 -0.26211,-0.384434 -0.41064,-0.838765 -0.44559,-1.362993 -0.0524,-0.611599 0.035,-1.389203 0.26211,-2.332814 0.22717,-0.943611 0.49802,-1.834798 0.81256,-2.673563 0.33201,-0.838765 0.79507,-1.895958 1.3892,-3.171579 0.6116,-1.293096 1.10088,-2.297866 1.46784,-3.014311 0.38443,-0.733919 0.9174,-1.73869 1.5989,-3.014311 1.57268,-2.988099 2.42892,-4.796686 2.56871,-5.425759 -1.04845,0.192217 -2.3066,0.777604 -3.77444,1.756163 -1.45037,0.961085 -2.79588,2.096912 -4.03655,3.407482 -0.54171,0.576651 -1.0572,1.196987 -1.54648,1.86101 -0.4718,0.646547 -0.96108,1.415415 -1.46784,2.306603 -0.50675,0.891187 -0.88245,1.869746 -1.12709,2.935676 -0.24464,1.048456 -0.31454,2.088175 -0.20969,3.119157 0.0349,0.262114 0.0874,0.550439 0.15727,0.864976 0.0699,0.314537 0.19222,0.725182 0.36696,1.231936 0.19222,0.489279 0.47181,0.926136 0.83877,1.31057 0.36696,0.366959 0.80382,0.602862 1.31057,0.707707 l 0.0524,0.02621 v 0.02621 c 0.0175,0.104846 -0.0262,0.218429 -0.13106,0.340748 -0.29706,0.36696 -0.82129,0.576651 -1.57268,0.629074 -1.11835,0.08737 -2.14934,-0.227165 -3.09295,-0.94361 -1.29309,-0.978559 -2.03575,-2.533769 -2.22797,-4.665629 -0.0699,-0.629074 -0.0175,-1.301833 0.15727,-2.018278 0.17475,-0.716445 0.43686,-1.415415 0.78634,-2.096912 0.34949,-0.681497 0.72518,-1.345519 1.12709,-1.992066 0.41939,-0.646548 0.87372,-1.275622 1.363,-1.887221 0.50675,-0.611599 0.94361,-1.12709 1.31057,-1.546473 0.38443,-0.419382 0.76887,-0.82129 1.1533,-1.205724 1.7649,-1.799849 3.54727,-3.293899 5.34712,-4.482149 1.79985,-1.205725 3.25022,-1.86101 4.3511,-1.965855 0.40191,-0.05242 0.78634,0.04369 1.1533,0.288325 0.36696,0.227165 0.65528,0.515491 0.86497,0.864976 0.17475,0.0699 0.34949,0.174743 0.52423,0.314537 0.17475,0.139794 0.32328,0.297062 0.4456,0.471805 0.12232,0.174743 0.19222,0.340748 0.20969,0.498017 0.12232,0.716445 -0.28833,2.280391 -1.23194,4.69184 1.24067,-1.537735 2.55998,-2.830831 3.95792,-3.879287 1.41542,-1.06593 2.73473,-1.668792 3.95792,-1.808586 0.96109,-0.104846 1.80859,0.235902 2.54251,1.022244 0.75139,0.594125 1.17078,1.476576 1.25815,2.647352 0.0349,0.401908 -0.035,0.952347 -0.20969,1.651318 -0.15727,0.698971 -0.40191,1.485313 -0.73392,2.359026 -0.33201,0.873713 -0.77761,1.764901 -1.33679,2.673562 -0.55917,0.908662 -1.17077,1.756164 -1.83479,2.542506 -0.66403,0.768868 -1.46784,1.424153 -2.41145,1.965855 -0.92614,0.524228 -1.88723,0.830028 -2.88326,0.917399 h -0.41938 c -0.68149,0 -1.32804,-0.139794 -1.93964,-0.419382 1.18825,1.712478 2.69103,3.337585 4.50836,4.87532 1.8348,1.537735 3.41622,2.481346 4.74426,2.830831 1.03098,0.279588 1.91343,0.366959 2.64735,0.262114 0.75139,-0.08737 1.31057,-0.227165 1.67753,-0.419382 0.36696,-0.192217 0.58539,-0.393172 0.65529,-0.602863 0.0874,-0.192217 0.0961,-0.463068 0.0262,-0.812553 -0.0524,-0.227165 -0.0262,-0.375697 0.0786,-0.445594 0.10485,-0.0699 0.22717,-0.06116 0.36696,0.02621 z m -16.14622,-8.885665 c 0.13979,0.24464 0.26211,0.436857 0.36696,0.576651 0.10485,0.12232 0.27085,0.279588 0.49802,0.471805 0.22717,0.192217 0.52423,0.332012 0.89119,0.419383 0.36695,0.0699 0.79507,0.08737 1.28435,0.05242 0.78635,-0.03495 1.72996,-0.506752 2.83083,-1.415416 1.10088,-0.908662 2.10565,-2.044489 3.01432,-3.407482 0.57665,-0.856239 1.03971,-1.703741 1.3892,-2.542506 0.34949,-0.856239 0.56791,-1.651318 0.65528,-2.385237 0.0874,-0.733919 0.0437,-1.397941 -0.13105,-1.992066 -0.24464,-0.0699 -0.50675,-0.08737 -0.78634,-0.05242 -0.92614,0.104845 -1.98333,0.559176 -3.17158,1.362993 -1.17078,0.786342 -2.40272,1.913432 -3.69581,3.38127 -1.29309,1.467839 -2.48134,3.127894 -3.56475,4.980166 0.0349,0 0.0611,0.0087 0.0786,0.02621 0.0874,0.03495 0.1398,0.09611 0.15727,0.18348 v 0.02621 l 0.0262,0.02621 c 0.0349,0.05242 0.0874,0.148528 0.15727,0.288325 z m 16.01516,-3.74823 c 0.71645,0.541703 0.89119,1.380468 0.52423,2.516295 -0.0524,0.209691 -0.27083,0.681496 -0.65529,1.415415 -0.43685,0.821291 -0.78634,1.502787 -1.04845,2.044489 -0.24464,0.541703 -0.5417,1.319308 -0.89119,2.332815 -0.34949,1.013507 -0.56792,1.948381 -0.65529,2.80462 -0.0175,0.139794 -0.0786,0.262114 -0.18348,0.366959 -0.0874,0.0699 -0.18347,0.113583 -0.28832,0.131057 h -0.0262 c -0.26211,0.08737 -0.51549,0.131057 -0.76013,0.131057 -0.38443,0 -0.71645,-0.113583 -0.99604,-0.340748 -0.64655,-0.524228 -0.83876,-1.459101 -0.57665,-2.80462 0.10485,-0.524228 0.47181,-1.43289 1.10088,-2.725985 0.15727,-0.36696 0.27959,-0.637811 0.36696,-0.812554 0.0874,-0.192217 0.20096,-0.463068 0.34075,-0.812553 0.15727,-0.349485 0.27085,-0.629074 0.34075,-0.838765 0.0874,-0.227165 0.17474,-0.498016 0.26211,-0.812553 0.10485,-0.332011 0.16601,-0.620337 0.18348,-0.864976 0.0349,-0.262114 0.0524,-0.532965 0.0524,-0.812554 0.0175,-0.279588 0,-0.550439 -0.0524,-0.812553 -0.0349,-0.174743 0.035,-0.323274 0.20969,-0.445594 0.19222,-0.157268 0.59413,-0.218428 1.20573,-0.18348 0.62907,0.03495 1.14456,0.209689 1.54647,0.524228 z m 1.33678,-6.814963 c 0.38443,0.209691 0.64655,0.489279 0.78634,0.838764 0.13979,0.332011 0.13979,0.690234 0,1.074668 -0.0524,0.104845 -0.18346,0.323274 -0.39317,0.655285 -0.78634,1.205724 -1.16204,2.061963 -1.12709,2.568717 0.0175,0.139794 -0.0437,0.262114 -0.18348,0.366959 -0.0699,0.0699 -0.14853,0.104846 -0.2359,0.104846 h -0.0262 c -0.0175,0 -0.0349,-0.0087 -0.0524,-0.02621 -0.40191,0.01747 -0.75139,-0.148532 -1.04845,-0.498017 -0.48928,-0.611599 -0.6116,-1.397941 -0.36696,-2.359026 0.0874,-0.297063 0.25338,-0.760131 0.49802,-1.389204 0.26211,-0.629073 0.48928,-1.083404 0.68149,-1.362993 0.15727,-0.174743 0.36696,-0.253377 0.62908,-0.235902 0.27959,0.01747 0.55917,0.104845 0.83876,0.262114 z m 13.78722,30.300377 h 0.0262 z m -6.52664,-23.721316 c 1.45037,-0.454331 2.42893,-0.157269 2.93568,0.891187 0.22717,0.541703 0.33201,1.179513 0.31453,1.913432 0,0.733919 -0.13979,1.546473 -0.41938,2.437661 -0.26211,0.891187 -0.58539,1.747426 -0.96982,2.568717 -0.38443,0.82129 -0.85624,1.590158 -1.41542,2.306603 -0.5417,0.716445 -1.09214,1.266884 -1.65131,1.651318 -0.45433,0.314537 -0.89119,0.471805 -1.31057,0.471805 -0.36696,0 -0.70771,-0.12232 -1.02225,-0.366959 -0.36696,-0.279589 -0.62907,-0.664023 -0.78634,-1.153302 -0.13979,-0.489279 -0.15726,-0.908662 -0.0524,-1.258147 0.0699,-0.174743 0.19221,-0.24464 0.36696,-0.209691 0.17474,0.01747 0.26211,0.113582 0.26211,0.288325 0,0.332011 0.0612,0.524228 0.18348,0.576651 0.12232,0.03495 0.35822,-0.139796 0.70771,-0.524228 0.83877,-0.908662 1.55521,-2.236706 2.14933,-3.984133 0.59413,-1.747427 0.76013,-2.953151 0.49802,-3.617173 -0.0524,-0.139794 -0.11356,-0.209691 -0.18348,-0.209691 -0.0874,-0.01747 -0.2359,0.06116 -0.44559,0.235902 -0.20969,0.157269 -0.50676,0.471806 -0.89119,0.943611 -0.36696,0.471805 -0.75139,1.057193 -1.1533,1.756164 -0.38443,0.646547 -0.75139,1.328044 -1.10088,2.044489 -0.66403,1.607632 -1.16204,3.171579 -1.49405,4.69184 -0.0175,0.139794 -0.0786,0.262114 -0.18348,0.36696 -0.0874,0.0699 -0.18348,0.104845 -0.28833,0.104845 h -0.0262 c -0.24464,0.104846 -0.48928,0.157269 -0.73392,0.157269 -0.40191,0 -0.74265,-0.113583 -1.02224,-0.340748 -0.64655,-0.524228 -0.83003,-1.459101 -0.55044,-2.80462 0.0874,-0.471805 0.59413,-1.922169 1.52026,-4.351092 0.52423,-1.397941 0.93487,-2.507557 1.23194,-3.328848 0.31453,-0.838765 0.69023,-1.904695 1.12709,-3.197791 0.43685,-1.31057 0.73391,-2.402712 0.89118,-3.276425 0.17475,-0.891187 0.21843,-1.563946 0.13106,-2.018277 -0.0349,-0.174743 0.035,-0.314537 0.20969,-0.419383 0.19222,-0.174743 0.59413,-0.235903 1.20573,-0.18348 0.62907,0.03495 1.13583,0.200952 1.52026,0.498017 0.71644,0.541702 0.89992,1.389204 0.55044,2.542506 -0.0524,0.157268 -0.31452,0.838764 -0.78635,2.044489 -1.04845,2.603665 -1.86101,4.700577 -2.43766,6.290736 1.13583,-2.044489 2.17555,-3.224002 3.11916,-3.538539 z m 8.70221,-0.157269 c 1.55521,-0.436857 2.67356,-0.200954 3.35506,0.707708 0.41938,0.559177 0.59412,1.275622 0.52422,2.149335 -0.0524,0.873713 -0.33199,1.721215 -0.83876,2.542506 -0.34949,0.576651 -0.71645,1.030981 -1.10088,1.362992 -0.36696,0.332011 -0.71645,0.541703 -1.04846,0.629074 -0.33201,0.0699 -0.61159,0.09611 -0.83876,0.07863 -0.22717,-0.01747 -0.43686,-0.06116 -0.62907,-0.131057 -0.62907,-0.24464 -1.08341,-0.698971 -1.363,-1.362993 -0.55917,1.345519 -0.76013,2.525032 -0.60286,3.538539 0.10485,0.751393 0.41065,1.196987 0.9174,1.336782 0.90866,0.244639 1.91343,-0.139795 3.01431,-1.153302 0.12232,-0.12232 0.25338,-0.12232 0.39317,0 0.13979,0.104845 0.16599,0.235902 0.0786,0.393171 -0.34949,0.611599 -0.92614,1.144564 -1.72996,1.598895 -0.80381,0.454331 -1.6251,0.681497 -2.46387,0.681497 -0.20969,0 -0.41064,-0.01747 -0.60286,-0.05242 -0.69897,-0.104846 -1.26689,-0.480543 -1.70374,-1.12709 -0.43686,-0.664022 -0.69024,-1.520261 -0.76013,-2.568717 -0.10485,-1.764901 0.28832,-3.459905 1.17951,-5.085012 1.01351,-1.852272 2.42019,-3.031785 4.22004,-3.538539 z m 1.91343,3.092945 c 0.0349,-0.524228 -0.0612,-0.856239 -0.28833,-0.996033 -0.13979,-0.08737 -0.34948,-0.04369 -0.62907,0.131057 -0.94361,0.576651 -1.75617,1.485313 -2.43766,2.725986 0.0349,0.349485 0.18346,0.611599 0.44559,0.786342 0.34949,0.209691 0.6815,0.24464 0.99604,0.104845 0.57665,-0.262114 1.03098,-0.655285 1.36299,-1.179513 0.33201,-0.524228 0.51549,-1.048456 0.55044,-1.572684 z m 7.18192,-2.699774 c 0.71645,0.541703 0.89119,1.380468 0.52423,2.516295 -0.0524,0.209691 -0.27083,0.681496 -0.65529,1.415415 -0.43685,0.821291 -0.78634,1.502787 -1.04845,2.044489 -0.24464,0.541703 -0.5417,1.319308 -0.89119,2.332815 -0.34949,1.013507 -0.56792,1.948381 -0.65529,2.80462 -0.0175,0.139794 -0.0786,0.262114 -0.18348,0.366959 -0.0874,0.0699 -0.18347,0.113583 -0.28832,0.131057 h -0.0262 c -0.26211,0.08737 -0.51549,0.131057 -0.76013,0.131057 -0.38443,0 -0.71645,-0.113583 -0.99604,-0.340748 -0.64655,-0.524228 -0.83876,-1.459101 -0.57665,-2.80462 0.10485,-0.524228 0.47181,-1.43289 1.10088,-2.725985 0.15727,-0.36696 0.27959,-0.637811 0.36696,-0.812554 0.0874,-0.192217 0.20096,-0.463068 0.34075,-0.812553 0.15727,-0.349485 0.27085,-0.629074 0.34075,-0.838765 0.0874,-0.227165 0.17474,-0.498016 0.26211,-0.812553 0.10485,-0.332011 0.16601,-0.620337 0.18348,-0.864976 0.0349,-0.262114 0.0524,-0.532965 0.0524,-0.812554 0.0175,-0.279588 0,-0.550439 -0.0524,-0.812553 -0.0349,-0.174743 0.035,-0.323274 0.20969,-0.445594 0.19222,-0.157268 0.59413,-0.218428 1.20573,-0.18348 0.62907,0.03495 1.14456,0.209689 1.54647,0.524228 z m 1.33678,-6.814963 c 0.38443,0.209691 0.64655,0.489279 0.78634,0.838764 0.13979,0.332011 0.13979,0.690234 0,1.074668 -0.0524,0.104845 -0.18346,0.323274 -0.39317,0.655285 -0.78634,1.205724 -1.16204,2.061963 -1.12709,2.568717 0.0175,0.139794 -0.0437,0.262114 -0.18348,0.366959 -0.0699,0.0699 -0.14853,0.104846 -0.2359,0.104846 h -0.0262 c -0.0175,0 -0.0349,-0.0087 -0.0524,-0.02621 -0.40191,0.01747 -0.7514,-0.148532 -1.04846,-0.498017 -0.48928,-0.611599 -0.6116,-1.397941 -0.36696,-2.359026 0.0874,-0.297063 0.25338,-0.760131 0.49802,-1.389204 0.26211,-0.629073 0.48928,-1.083404 0.68149,-1.362993 0.15727,-0.174743 0.36697,-0.253377 0.62908,-0.235902 0.27959,0.01747 0.55917,0.104845 0.83876,0.262114 z m 5.60927,9.305046 c 0.85624,-0.01747 1.39794,0.148532 1.62511,0.498017 0.0699,0.104845 0.11358,0.235902 0.13105,0.393171 0.0349,0.139794 0.0524,0.279588 0.0524,0.419382 0,0.139794 -0.0262,0.323274 -0.0786,0.55044 -0.0349,0.209691 -0.0786,0.39317 -0.13105,0.550439 -0.0349,0.139794 -0.10483,0.340748 -0.2097,0.602862 -0.0874,0.24464 -0.15726,0.445594 -0.20969,0.602862 -0.0524,0.139794 -0.13977,0.349485 -0.26211,0.629074 -0.10485,0.279588 -0.18348,0.480542 -0.2359,0.602862 -0.10485,0.262114 -0.20096,0.489279 -0.28833,0.681496 -0.0699,0.192217 -0.15726,0.436857 -0.26211,0.73392 -0.0874,0.279588 -0.16601,0.51549 -0.23591,0.707707 -0.0524,0.192217 -0.0961,0.384434 -0.13105,0.576651 -0.0349,0.192217 -0.0437,0.332012 -0.0262,0.419383 0.0349,0.08737 0.0961,0.131057 0.18348,0.131057 0.17474,-0.01747 0.33201,-0.0699 0.4718,-0.157269 0.0524,0.24464 0.009,0.515491 -0.13106,0.812554 -0.13979,0.279588 -0.32327,0.524228 -0.55043,0.733919 -0.22717,0.192217 -0.4456,0.305799 -0.65529,0.340748 -0.64655,0.12232 -1.20572,-0.113583 -1.67753,-0.707708 -0.24464,-0.279588 -0.39317,-0.620336 -0.44559,-1.022244 -0.0524,-0.419383 -0.0174,-0.917399 0.10484,-1.49405 0.13979,-0.576651 0.26211,-1.057193 0.36696,-1.441627 0.12232,-0.384434 0.31454,-0.917399 0.57665,-1.598896 0.0874,-0.244639 0.22717,-0.594124 0.41939,-1.048455 0.20969,-0.454331 0.35822,-0.812554 0.44559,-1.074668 0.10485,-0.262114 0.12231,-0.436857 0.0524,-0.524228 -0.0175,-0.03495 -0.0611,-0.05242 -0.13106,-0.05242 -0.31453,-0.01747 -0.62033,-0.06116 -0.91739,-0.131057 -0.40191,0.803817 -1.0572,2.559981 -1.96586,5.268492 -0.13979,0.419382 -0.24464,0.733919 -0.31454,0.94361 -0.0699,0.209691 -0.15726,0.454331 -0.26211,0.733919 -0.10485,0.279589 -0.19222,0.498017 -0.26211,0.655285 -0.0524,0.157269 -0.0961,0.270851 -0.13106,0.340748 -0.29706,0.541703 -0.69897,0.812554 -1.20573,0.812554 -0.13979,0 -0.27959,-0.01747 -0.41938,-0.05242 -0.27959,-0.08737 -0.52423,-0.218428 -0.73392,-0.393171 -0.22717,-0.192217 -0.34075,-0.349485 -0.34075,-0.471805 0.0175,-0.05242 0.0611,-0.08737 0.13106,-0.104846 0.6815,-0.12232 1.87849,-2.691037 3.59096,-7.706151 0.15727,-0.489279 0.24465,-0.760131 0.26212,-0.812554 0.0175,-0.03495 0.0349,-0.07863 0.0524,-0.131057 -0.34949,-0.401908 -0.56791,-0.899924 -0.65528,-1.494049 -0.10485,-0.768868 0.009,-1.537736 0.34074,-2.306603 0.33201,-0.768868 0.77761,-1.293096 1.33678,-1.572684 0.76887,-0.401909 1.47658,-0.209692 2.12313,0.57665 0.0175,0 0.0262,0.0087 0.0262,0.02621 0.0175,0.03495 0.0262,0.07863 0.0262,0.131057 0.0175,0.03495 0.0262,0.0699 0.0262,0.104845 0,0.01747 -0.009,0.02621 -0.0262,0.02621 -0.0175,0.104845 -0.10484,0.332011 -0.26211,0.681496 -0.71645,1.782375 -0.89993,2.944414 -0.55044,3.486116 0.22717,0.349485 0.6815,0.524228 1.36299,0.524228 z m 9.98656,-2.988099 c 0.92613,0.174743 1.55521,0.725182 1.88722,1.651318 0.29706,0.716445 0.36696,1.590158 0.20969,2.62114 -0.15727,1.030981 -0.43685,2.044489 -0.83876,3.040522 -0.40191,0.996033 -0.93487,1.930907 -1.5989,2.80462 -0.64655,0.873713 -1.32804,1.520261 -2.04449,1.939643 -0.57665,0.314537 -1.13582,0.471805 -1.67753,0.471805 -0.99603,0 -1.88722,-0.480542 -2.67356,-1.441626 -0.5417,-0.681497 -0.82129,-1.55521 -0.83876,-2.62114 0,-1.083405 0.20969,-2.175546 0.62907,-3.276425 0.43685,-1.100879 1.00477,-2.096912 1.70374,-2.9881 0.80381,-0.978559 1.66005,-1.660055 2.56872,-2.044489 0.92613,-0.384434 1.81732,-0.436857 2.67356,-0.157268 z m -1.62511,5.0588 c 0.24464,-0.838765 0.40191,-1.572684 0.47181,-2.201758 0.0699,-0.646548 0.0612,-0.996033 -0.0262,-1.048456 -0.0699,-0.104845 -0.14854,-0.166005 -0.23591,-0.18348 -0.22716,-0.05242 -0.49801,0.01748 -0.81255,0.209692 -0.0175,0.01747 -0.0349,0.02621 -0.0524,0.02621 -1.06593,0.873713 -1.88722,2.027015 -2.46387,3.459905 -0.55918,1.432889 -0.83003,2.691036 -0.81256,3.774441 0,0.262114 0.0175,0.48928 0.0524,0.681497 0.0524,0.174743 0.0961,0.297062 0.13105,0.366959 0.0349,0.05242 0.0611,0.07863 0.0786,0.07863 0.43685,0.157269 0.95234,-0.113582 1.54647,-0.812553 0.83877,-1.013507 1.54647,-2.463871 2.12312,-4.351092 z"
       id="text3"
       style="font-size:26.2114px;font-family:Abeganshi;-inkscape-font-specification:'Abeganshi, Normal';fill:#8b0081;stroke-width:2.18426"
       aria-label="Priscila Ribeiro"
       sodipodi:nodetypes="ccccccscccscscsccccccccsccsccccscccccccscccssccccccccccccccccccccccsccssssccccccsccccccccccsssccscccccccccscccccccccccccccccssccsccccccccsccccscccssscccsccccscccccccccsccssscccccssccccccsscccscccccccsccccccccccccsccccccccccccscssccccsscccccccccccccccccccsccsccscscccsccccscccccccccsccssscccccssccccccsssccccccsccccccccccsssccscccccscccsccsscccccssssccscsscccccccssccccccsccsccsscsscsccccccccssccccccsccccccccsccscccccccccssccccccccsscccccccsscccsccccsccsssscsccsccscccscccccssscccsccccscccccccccsccssscccccssccccccsscccscccsccsccccsccsccccccccscscccccccccccccssssccccscccccccssccccssscccccssscccsccccscccccccccsccssscccccssccccccsssccscccccccccscccccccccccccccccssccsccccccccsccccscccssccssccsccccccscccccccccccss" /></g></svg>
