<?xml version="1.0" encoding="UTF-8" standalone="no"?>
<!-- Created with Inkscape (http://www.inkscape.org/) -->

<svg
   width="170.03131mm"
   height="27.929005mm"
   viewBox="0 0 170.03131 27.929005"
   version="1.1"
   id="svg1"
   xml:space="preserve"
   inkscape:export-filename="priscila-ribeiro-logo.svg"
   inkscape:export-xdpi="96"
   inkscape:export-ydpi="96"
   xmlns:inkscape="http://www.inkscape.org/namespaces/inkscape"
   xmlns:sodipodi="http://sodipodi.sourceforge.net/DTD/sodipodi-0.dtd"
   xmlns="http://www.w3.org/2000/svg"
   xmlns:svg="http://www.w3.org/2000/svg"><sodipodi:namedview
     id="namedview1"
     pagecolor="#ffffff"
     bordercolor="#000000"
     borderopacity="0.25"
     inkscape:showpageshadow="2"
     inkscape:pageopacity="0.0"
     inkscape:pagecheckerboard="0"
     inkscape:deskcolor="#d1d1d1"
     inkscape:document-units="mm"><inkscape:page
       x="-4.3140738e-13"
       y="0"
       width="170.03133"
       height="27.929005"
       id="page2"
       margin="0"
       bleed="0" /></sodipodi:namedview><defs
     id="defs1" /><g
     inkscape:label="Layer 1"
     inkscape:groupmode="layer"
     id="layer1"
     transform="translate(-240.47514,-114.78125)"><path
       d="m 268.56857,117.41624 c 0.75139,0.66402 1.17951,1.6251 1.28436,2.88325 0.0349,0.43686 -0.035,1.03972 -0.20969,1.80859 -0.15727,0.76886 -0.41065,1.63384 -0.76013,2.59493 -0.33201,0.96108 -0.78635,1.93964 -1.363,2.93567 -0.57665,0.99603 -1.21446,1.92217 -1.91343,2.77841 -0.69897,0.83877 -1.52899,1.54647 -2.49008,2.12312 -0.96109,0.57665 -1.96586,0.9174 -3.01431,1.02225 h -0.41938 c -0.89119,0 -1.69501,-0.22717 -2.41145,-0.6815 -0.69897,-0.45433 -1.24941,-1.01351 -1.65132,-1.67753 -0.33201,-0.5417 -0.49802,-0.99603 -0.49802,-1.36299 -0.34949,0.66402 -0.6815,1.35425 -0.99603,2.0707 -0.90866,2.62114 -1.37173,4.6831 -1.38921,6.18589 0,0.50675 0.12232,0.9174 0.36696,1.23194 0.0524,0.0699 0.0874,0.12232 0.10485,0.15726 0,0.0524 -0.0175,0.10485 -0.0524,0.15727 -0.10485,0.10485 -0.3058,0.15727 -0.60287,0.15727 -0.0349,0 -0.0611,-0.009 -0.0786,-0.0262 -0.12232,0 -0.27085,-0.0175 -0.44559,-0.0524 -0.15727,-0.0175 -0.42813,-0.0961 -0.81256,-0.2359 -0.38443,-0.13979 -0.73392,-0.31454 -1.04845,-0.52423 -0.29707,-0.19222 -0.57666,-0.48928 -0.83877,-0.89119 -0.26211,-0.38443 -0.41938,-0.83876 -0.4718,-1.36299 -0.0524,-0.6116 0.035,-1.3892 0.26211,-2.33281 0.24464,-0.94361 0.52423,-1.8348 0.83877,-2.67357 0.31453,-0.83876 0.7776,-1.89595 1.3892,-3.17158 0.6116,-1.29309 1.10088,-2.29786 1.46784,-3.01431 0.36696,-0.73392 0.89119,-1.73869 1.57268,-3.01431 1.57269,-2.9881 2.43766,-4.79668 2.59493,-5.42576 -1.04845,0.19222 -2.3066,0.77761 -3.77444,1.75617 -1.46784,0.96108 -2.81336,2.09691 -4.03656,3.40748 -0.5417,0.57665 -1.05719,1.19699 -1.54647,1.86101 -0.47181,0.64655 -0.96109,1.41541 -1.46784,2.3066 -0.50675,0.89119 -0.88245,1.86975 -1.12709,2.93568 -0.24464,1.04845 -0.31454,2.08817 -0.20969,3.11915 0.0175,0.1398 0.0437,0.3058 0.0786,0.49802 0.0349,0.17474 0.0873,0.41938 0.15726,0.73392 0.0699,0.31454 0.17475,0.6116 0.31454,0.89119 0.13979,0.27959 0.29706,0.56791 0.47181,0.86497 0.19221,0.27959 0.42811,0.52423 0.7077,0.73392 0.27959,0.19222 0.59413,0.32328 0.94361,0.39317 l 0.0262,0.0262 0.0262,0.0262 c 0,0.10485 -0.0437,0.21843 -0.13106,0.34075 -0.31453,0.36696 -0.83876,0.57665 -1.57268,0.62908 -1.11835,0.0874 -2.14934,-0.22717 -3.09295,-0.94361 -1.29309,-0.97856 -2.04449,-2.53377 -2.25418,-4.66563 -0.0699,-0.7514 0.0349,-1.56395 0.31454,-2.43766 0.27959,-0.89119 0.62907,-1.71248 1.04845,-2.46388 0.43686,-0.76886 0.95235,-1.55521 1.54648,-2.35902 0.6116,-0.82129 1.14456,-1.48531 1.59889,-1.99207 0.47181,-0.52423 0.94361,-1.02224 1.41542,-1.49405 1.74743,-1.79985 3.52106,-3.2939 5.32091,-4.48215 1.79985,-1.20572 3.25022,-1.86101 4.35109,-1.96585 0.40191,-0.0524 0.78635,0.0437 1.15331,0.28832 0.36695,0.22717 0.66401,0.51549 0.89118,0.86498 0.26211,0.12232 0.50675,0.31454 0.73392,0.57665 0.24464,0.24464 0.38443,0.48054 0.41938,0.70771 0.12232,0.75139 -0.33201,2.42892 -1.36299,5.03259 0.0699,-0.0874 0.11359,-0.1398 0.13106,-0.15727 0.87371,-1.11835 1.77364,-2.09691 2.69977,-2.93568 0.92614,-0.83876 1.82607,-1.50279 2.69978,-1.99206 0.89119,-0.48928 1.72121,-0.77761 2.49008,-0.86498 0.97856,-0.12232 1.85227,0.24464 2.62114,1.10088 z m -3.43369,9.2002 c 1.04845,-1.53774 1.78237,-3.04052 2.20175,-4.50836 0.41939,-1.46784 0.46307,-2.72599 0.13106,-3.77444 -0.22717,-0.10485 -0.53297,-0.1398 -0.9174,-0.10485 -0.55917,0.0699 -1.17951,0.27959 -1.86101,0.62907 -0.66402,0.33201 -1.36299,0.79508 -2.09691,1.38921 -0.73392,0.57665 -1.46784,1.24941 -2.20176,2.01828 -1.85227,1.97459 -3.52106,4.33361 -5.00637,7.07707 0.0699,-0.035 0.14853,-0.0524 0.2359,-0.0524 h 0.0524 l 0.13106,0.0262 0.0524,0.10485 c 0.0349,0.0524 0.0961,0.14853 0.18348,0.28832 0.13979,0.27959 0.26211,0.49802 0.36696,0.65529 0.12232,0.15727 0.3058,0.34948 0.55044,0.57665 0.24464,0.20969 0.55918,0.35822 0.94361,0.44559 0.40191,0.0874 0.87371,0.12232 1.41542,0.10485 0.50675,-0.035 1.09214,-0.26211 1.75616,-0.6815 0.68149,-0.41938 1.37173,-0.99603 2.0707,-1.72995 0.71645,-0.73392 1.38047,-1.55521 1.99207,-2.46387 z m 9.20018,0.55044 c 0.85624,-0.0175 1.39794,0.14853 1.62511,0.49801 0.0699,0.10485 0.11358,0.23591 0.13105,0.39317 0.0349,0.1398 0.0524,0.27959 0.0524,0.41939 0,0.13979 -0.0262,0.32327 -0.0786,0.55044 -0.0349,0.20969 -0.0786,0.39317 -0.13106,0.55044 -0.0349,0.13979 -0.10483,0.34074 -0.20969,0.60286 -0.0874,0.24464 -0.15726,0.44559 -0.20969,0.60286 -0.0524,0.13979 -0.13977,0.34948 -0.26211,0.62907 -0.10485,0.27959 -0.18348,0.48055 -0.23591,0.60287 -0.10484,0.26211 -0.20095,0.48927 -0.28832,0.68149 -0.0699,0.19222 -0.15727,0.43686 -0.26211,0.73392 -0.0874,0.27959 -0.16601,0.51549 -0.23591,0.70771 -0.0524,0.19222 -0.0961,0.38443 -0.13105,0.57665 -0.0349,0.19222 -0.0437,0.33201 -0.0262,0.41938 0.0349,0.0874 0.0961,0.13106 0.18348,0.13106 0.17475,-0.0175 0.33202,-0.0699 0.47181,-0.15727 0.0524,0.24464 0.009,0.51549 -0.13106,0.81255 -0.13979,0.27959 -0.32327,0.52423 -0.55044,0.73392 -0.22716,0.19222 -0.44559,0.3058 -0.65528,0.34075 -0.64655,0.12232 -1.20572,-0.11358 -1.67753,-0.70771 -0.24464,-0.27958 -0.39317,-0.62033 -0.4456,-1.02224 -0.0524,-0.41938 -0.0174,-0.9174 0.10485,-1.49405 0.13979,-0.57665 0.26211,-1.05719 0.36696,-1.44163 0.12232,-0.38443 0.31454,-0.9174 0.57665,-1.59889 0.0874,-0.24464 0.22717,-0.59413 0.41938,-1.04846 0.20969,-0.45433 0.35823,-0.81255 0.4456,-1.07467 0.10485,-0.26211 0.12231,-0.43685 0.0524,-0.52422 -0.0175,-0.035 -0.0611,-0.0524 -0.13106,-0.0524 -0.31453,-0.0175 -0.62033,-0.0612 -0.9174,-0.13106 -0.40191,0.80382 -1.05719,2.55998 -1.96585,5.26849 -0.13979,0.41938 -0.24464,0.73392 -0.31454,0.94361 -0.0699,0.20969 -0.15726,0.45433 -0.26211,0.73392 -0.10485,0.27959 -0.19222,0.49802 -0.26212,0.65528 -0.0524,0.15727 -0.0961,0.27086 -0.13105,0.34075 -0.29707,0.54171 -0.69898,0.81256 -1.20573,0.81256 -0.13979,0 -0.27959,-0.0175 -0.41938,-0.0524 -0.27959,-0.0874 -0.52423,-0.21843 -0.73392,-0.39317 -0.22717,-0.19222 -0.34075,-0.34949 -0.34075,-0.47181 0.0175,-0.0524 0.0611,-0.0874 0.13106,-0.10485 0.68149,-0.12232 1.87848,-2.69103 3.59096,-7.70615 0.15727,-0.48928 0.24464,-0.76013 0.26212,-0.81255 0.0175,-0.035 0.0349,-0.0786 0.0524,-0.13106 -0.34949,-0.40191 -0.56792,-0.89992 -0.65529,-1.49405 -0.10484,-0.76886 0.009,-1.53773 0.34075,-2.3066 0.33201,-0.76887 0.77761,-1.2931 1.33678,-1.57268 0.76887,-0.40191 1.47658,-0.2097 2.12313,0.57665 0.0175,0 0.0262,0.009 0.0262,0.0262 0.0175,0.035 0.0262,0.0786 0.0262,0.13105 0.0175,0.0349 0.0262,0.0699 0.0262,0.10485 0,0.0175 -0.009,0.0262 -0.0262,0.0262 -0.0175,0.10484 -0.10484,0.33201 -0.26211,0.68149 -0.71645,1.78238 -0.89993,2.94442 -0.55044,3.48612 0.22716,0.34949 0.68149,0.52423 1.36299,0.52423 z m 7.81101,-2.49009 c 0.71645,0.54171 0.89119,1.38047 0.52423,2.5163 -0.0524,0.20969 -0.27083,0.68149 -0.65528,1.41541 -0.43686,0.82129 -0.78635,1.50279 -1.04846,2.04449 -0.24464,0.54171 -0.5417,1.31931 -0.89119,2.33282 -0.34949,1.0135 -0.56791,1.94838 -0.65528,2.80462 -0.0175,0.13979 -0.0786,0.26211 -0.18348,0.36696 -0.0874,0.0699 -0.18348,0.11358 -0.28833,0.13105 h -0.0262 c -0.26211,0.0874 -0.51549,0.13106 -0.76013,0.13106 -0.38443,0 -0.71644,-0.11358 -0.99603,-0.34075 -0.64655,-0.52423 -0.83877,-1.4591 -0.57665,-2.80462 0.10484,-0.52423 0.4718,-1.43289 1.10087,-2.72598 0.15727,-0.36696 0.27959,-0.63781 0.36696,-0.81256 0.0874,-0.19221 0.20096,-0.46306 0.34075,-0.81255 0.15727,-0.34948 0.27085,-0.62907 0.34075,-0.83876 0.0874,-0.22717 0.17474,-0.49802 0.26211,-0.81256 0.10485,-0.33201 0.16601,-0.62033 0.18348,-0.86497 0.0349,-0.26212 0.0524,-0.53297 0.0524,-0.81256 0.0175,-0.27959 0,-0.55044 -0.0524,-0.81255 -0.0349,-0.17474 0.035,-0.32327 0.2097,-0.44559 0.19221,-0.15727 0.59412,-0.21843 1.20572,-0.18348 0.62907,0.035 1.14456,0.20968 1.54647,0.52422 z m 1.33678,-6.81496 c 0.38443,0.20969 0.64655,0.48928 0.78635,0.83876 0.13979,0.33202 0.13979,0.69024 0,1.07467 -0.0524,0.10485 -0.18346,0.32328 -0.39318,0.65529 -0.78634,1.20572 -1.16204,2.06196 -1.12709,2.56871 0.0175,0.1398 -0.0437,0.26212 -0.18348,0.36696 -0.0699,0.0699 -0.14853,0.10485 -0.2359,0.10485 h -0.0262 c -0.0175,0 -0.0349,-0.009 -0.0524,-0.0262 -0.40191,0.0175 -0.75139,-0.14853 -1.04846,-0.49802 -0.48928,-0.6116 -0.6116,-1.39794 -0.36696,-2.35902 0.0874,-0.29707 0.25338,-0.76013 0.49802,-1.38921 0.26211,-0.62907 0.48928,-1.0834 0.6815,-1.36299 0.15727,-0.17474 0.36696,-0.25338 0.62907,-0.2359 0.27959,0.0175 0.55917,0.10484 0.83876,0.26211 z m 7.07711,4.69184 c 0.33201,0.22717 0.48927,0.55044 0.4718,0.96982 v 0.0786 l -0.0262,0.0524 c -0.36696,0.41938 -0.72518,1.10088 -1.07467,2.04449 -0.34948,0.92614 -0.48927,1.49405 -0.41938,1.70374 l 0.13106,0.0524 -0.0262,0.15727 c -0.0524,0.24464 -0.22714,0.36696 -0.52423,0.36696 -0.19222,0 -0.40191,-0.10485 -0.62907,-0.31454 -0.20969,-0.20969 -0.35823,-0.52422 -0.4456,-0.94361 -0.0524,-0.29706 0.11361,-0.90866 0.49802,-1.83479 -1.36299,1.25814 -2.0707,2.28039 -2.12312,3.06673 -0.0349,0.24464 0.0175,0.51549 0.15726,0.81255 0.15727,0.29706 0.31454,0.55044 0.47181,0.76013 0.15727,0.19222 0.40191,0.47181 0.73392,0.83877 0.41938,0.48928 0.73392,0.88245 0.94361,1.17951 0.22717,0.27959 0.44559,0.67276 0.65528,1.17951 0.20969,0.48928 0.28833,0.96983 0.23591,1.44163 -0.0349,0.5417 -0.34073,1.0834 -0.9174,1.62511 -0.57665,0.52422 -1.45037,0.8475 -2.62114,0.96982 h -0.47181 c -0.69897,0 -1.3892,-0.12232 -2.0707,-0.36696 -0.66402,-0.24464 -1.17077,-0.6116 -1.52026,-1.10088 -0.47181,-0.62907 -0.5417,-1.34552 -0.20969,-2.14933 0.0874,-0.22717 0.26212,-0.32328 0.52423,-0.28833 0.26211,0.0175 0.41938,0.14853 0.4718,0.39317 0.0699,0.34949 0.32328,0.62034 0.76013,0.81255 0.45433,0.19222 1.02225,0.27959 1.70374,0.26212 0.29707,-0.0175 0.66403,-0.10485 1.10088,-0.26212 0.45433,-0.17474 0.77761,-0.39317 0.96982,-0.65528 0.1398,-0.17474 0.18349,-0.3757 0.13106,-0.60286 -0.0524,-0.17475 -0.34072,-0.58539 -0.86497,-1.23194 -0.43686,-0.5417 -0.77761,-0.98729 -1.02225,-1.33678 -0.22717,-0.34948 -0.47181,-0.83876 -0.73392,-1.46784 -0.26211,-0.62907 -0.39317,-1.23193 -0.39317,-1.80858 0.0175,-0.50676 0.22716,-1.04846 0.62907,-1.62511 0.40191,-0.57665 0.87372,-1.08341 1.41542,-1.52026 0.5417,-0.43686 1.03098,-0.79508 1.46784,-1.07467 0.45433,-0.29706 0.78634,-0.48928 0.99603,-0.57665 0.31454,-0.10485 0.6116,-0.0175 0.89119,0.26211 h 0.0262 c 0.20969,-0.0874 0.4456,-0.0437 0.70771,0.13106 z m 5.66166,1.72995 c 1.60763,-0.52423 2.69978,-0.24464 3.27643,0.83877 0.26211,0.55917 0.35822,1.17951 0.28832,1.86101 -0.0524,0.68149 -0.20967,1.12709 -0.4718,1.33678 -0.12232,0.0874 -0.24464,0.0961 -0.36696,0.0262 -0.13979,-0.0699 -0.19222,-0.28833 -0.15727,-0.65529 0.0874,-0.89118 0.009,-1.42415 -0.2359,-1.59889 -0.24464,-0.15727 -0.6815,-0.0699 -1.31057,0.26211 -1.13583,0.59413 -2.07071,1.66006 -2.80462,3.19779 -0.71645,1.53774 -1.01351,2.90947 -0.89119,4.11519 0.0874,0.85624 0.38444,1.35426 0.89119,1.49405 0.52423,0.1398 1.14456,-0.10484 1.86101,-0.73392 0.73391,-0.64654 1.31056,-1.529 1.72995,-2.64735 0.0699,-0.19222 0.20095,-0.24464 0.39317,-0.15727 0.20969,0.0699 0.27959,0.20096 0.20969,0.39317 -0.12232,0.31454 -0.26211,0.63782 -0.41938,0.96983 -0.13979,0.31453 -0.35822,0.7077 -0.65529,1.17951 -0.27959,0.4718 -0.57665,0.89119 -0.89119,1.25815 -0.29706,0.34948 -0.67276,0.65528 -1.12709,0.9174 -0.45433,0.24463 -0.90866,0.36695 -1.36299,0.36695 -0.26211,0 -0.53296,-0.035 -0.81255,-0.10484 -0.5417,-0.15727 -1.01351,-0.43686 -1.41542,-0.83877 -0.38443,-0.4019 -0.68149,-0.89992 -0.89118,-1.49405 -0.20969,-0.59412 -0.32328,-1.25814 -0.34075,-1.99206 0,-1.06593 0.19222,-2.12312 0.57665,-3.17158 0.40191,-1.06593 1.03098,-2.04449 1.88722,-2.93568 0.85624,-0.89118 1.86975,-1.52026 3.04052,-1.88722 z m 9.33127,0.39317 c 0.71645,0.54171 0.89119,1.38047 0.52423,2.5163 -0.0524,0.20969 -0.27083,0.68149 -0.65528,1.41541 -0.43686,0.82129 -0.78635,1.50279 -1.04846,2.04449 -0.24464,0.54171 -0.5417,1.31931 -0.89119,2.33282 -0.34948,1.0135 -0.56791,1.94838 -0.65528,2.80462 -0.0175,0.13979 -0.0786,0.26211 -0.18348,0.36696 -0.0874,0.0699 -0.18348,0.11358 -0.28833,0.13105 h -0.0262 c -0.26211,0.0874 -0.51549,0.13106 -0.76013,0.13106 -0.38443,0 -0.71644,-0.11358 -0.99603,-0.34075 -0.64655,-0.52423 -0.83876,-1.4591 -0.57665,-2.80462 0.10485,-0.52423 0.47181,-1.43289 1.10088,-2.72598 0.15727,-0.36696 0.27959,-0.63781 0.36696,-0.81256 0.0874,-0.19221 0.20095,-0.46306 0.34074,-0.81255 0.15727,-0.34948 0.27086,-0.62907 0.34075,-0.83876 0.0874,-0.22717 0.17475,-0.49802 0.26212,-0.81256 0.10485,-0.33201 0.16601,-0.62033 0.18348,-0.86497 0.0349,-0.26212 0.0524,-0.53297 0.0524,-0.81256 0.0175,-0.27959 0,-0.55044 -0.0524,-0.81255 -0.0349,-0.17474 0.035,-0.32327 0.20969,-0.44559 0.19221,-0.15727 0.59412,-0.21843 1.20572,-0.18348 0.62907,0.035 1.14456,0.20968 1.54647,0.52422 z m 1.33679,-6.81496 c 0.38443,0.20969 0.64655,0.48928 0.78634,0.83876 0.13979,0.33202 0.13979,0.69024 0,1.07467 -0.0524,0.10485 -0.18346,0.32328 -0.39317,0.65529 -0.78635,1.20572 -1.16204,2.06196 -1.12709,2.56871 0.0175,0.1398 -0.0437,0.26212 -0.18348,0.36696 -0.0699,0.0699 -0.14854,0.10485 -0.23591,0.10485 h -0.0262 c -0.0175,0 -0.0349,-0.009 -0.0524,-0.0262 -0.40191,0.0175 -0.75139,-0.14853 -1.04846,-0.49802 -0.48927,-0.6116 -0.61159,-1.39794 -0.36696,-2.35902 0.0874,-0.29707 0.25338,-0.76013 0.49802,-1.38921 0.26211,-0.62907 0.48928,-1.0834 0.6815,-1.36299 0.15727,-0.17474 0.36696,-0.25338 0.62907,-0.2359 0.27959,0.0175 0.55918,0.10484 0.83877,0.26211 z m 6.57908,-0.86498 c 0.69897,0.55918 0.87372,1.40668 0.52423,2.54251 -0.0349,0.15727 -0.29705,0.83876 -0.78634,2.04449 -2.9881,7.49646 -4.587,12.23198 -4.79669,14.20658 -0.0175,0.13979 -0.0786,0.26211 -0.18348,0.36696 -0.0874,0.0699 -0.18348,0.11358 -0.28833,0.13105 h -0.0262 c -0.24464,0.0874 -0.48928,0.13106 -0.73392,0.13106 -0.40191,0 -0.74265,-0.11358 -1.02224,-0.34075 -0.62907,-0.52423 -0.81255,-1.4591 -0.55044,-2.80462 0.0874,-0.4718 0.59413,-1.92217 1.52026,-4.35109 0.41938,-1.10088 0.74265,-1.96585 0.96982,-2.59493 0.24464,-0.62907 0.55918,-1.50278 0.94361,-2.62114 0.40191,-1.13582 0.69898,-2.06196 0.89119,-2.77841 0.20969,-0.71644 0.3757,-1.43289 0.49802,-2.14933 0.12232,-0.73392 0.14852,-1.2931 0.0786,-1.67753 -0.0349,-0.17474 0.035,-0.31454 0.20969,-0.41938 0.19222,-0.17475 0.59413,-0.23591 1.20573,-0.18348 0.62907,0.0349 1.14456,0.20095 1.54647,0.49801 z m 8.2566,7.67994 c 0.71645,0.54171 0.89993,1.38047 0.55044,2.5163 -0.0524,0.20969 -0.27956,0.68149 -0.68149,1.41541 -0.41939,0.82129 -0.76014,1.50279 -1.02225,2.04449 -0.26211,0.54171 -0.56791,1.31931 -0.9174,2.33282 -0.33201,1.0135 -0.5417,1.94838 -0.62907,2.80462 -0.0175,0.13979 -0.0874,0.26211 -0.20969,0.36696 -0.0699,0.0699 -0.15727,0.11358 -0.26212,0.13105 h -0.0524 c -0.24464,0.0874 -0.48928,0.13106 -0.73392,0.13106 -0.40191,0 -0.74265,-0.11358 -1.02224,-0.34075 -0.59413,-0.48928 -0.79508,-1.3193 -0.60286,-2.49008 -0.76887,1.0834 -1.44163,1.82606 -2.01828,2.22797 -0.41939,0.31454 -0.89119,0.4718 -1.41542,0.4718 -0.27959,0 -0.53296,-0.0524 -0.76013,-0.15726 -0.68149,-0.26212 -1.10088,-0.81256 -1.25815,-1.65132 -0.24463,-1.25815 -0.14852,-2.59493 0.28833,-4.01035 0.43686,-1.41541 1.07467,-2.63861 1.91343,-3.66959 0.83877,-1.03098 1.71248,-1.72122 2.62114,-2.0707 0.96109,-0.34949 1.71248,-0.28833 2.25418,0.18348 0.52423,0.43685 0.79508,1.24941 0.81256,2.43766 0.27959,-0.97856 0.34075,-1.8348 0.18348,-2.56872 -0.0349,-0.17474 0.035,-0.32327 0.20969,-0.44559 0.19221,-0.15727 0.60286,-0.21843 1.23193,-0.18348 0.62907,0.035 1.13583,0.20968 1.52026,0.52422 z m -4.03655,4.56079 c 0.0349,-0.10485 0.0961,-0.17475 0.18348,-0.20969 -0.0349,-0.0524 -0.0524,-0.12232 -0.0524,-0.2097 0.0524,-0.27958 0.0611,-0.66402 0.0262,-1.1533 -0.0349,-0.48928 -0.12231,-0.83002 -0.26212,-1.02224 -0.0699,-0.0874 -0.14853,-0.13106 -0.2359,-0.13106 h -0.10485 c -0.36695,0 -0.76012,0.19222 -1.17951,0.57665 -0.75139,0.69897 -1.41541,1.74743 -1.99206,3.14537 -0.55918,1.38047 -0.83003,2.53377 -0.81256,3.45991 0,0.27958 0.0437,0.5417 0.13106,0.78634 0.0874,0.22716 0.17474,0.35822 0.26211,0.39317 0.0349,0.0175 0.0961,0 0.18348,-0.0524 0.6116,-0.43686 1.28436,-1.14457 2.01828,-2.12313 0.75139,-0.97855 1.36299,-2.13186 1.8348,-3.4599 z m 47.44264,8.07312 c 0.34949,0.24464 0.55918,0.67276 0.62908,1.28436 0.0874,0.6116 0.0437,1.03972 -0.13106,1.28436 -0.15727,0.29706 -0.28832,0.53296 -0.39317,0.70771 -0.10485,0.17474 -0.29706,0.41064 -0.57665,0.7077 -0.27959,0.31454 -0.57665,0.55918 -0.89119,0.73392 -0.29706,0.17474 -0.69897,0.33201 -1.20572,0.47181 -0.50675,0.13979 -1.06593,0.20969 -1.67753,0.20969 -0.45433,0 -0.93488,-0.035 -1.44163,-0.10485 -0.94361,-0.12232 -1.89596,-0.42812 -2.85704,-0.9174 -0.96109,-0.48928 -1.79112,-1.02224 -2.49009,-1.59889 -0.69897,-0.57665 -1.3892,-1.23194 -2.0707,-1.96586 -0.66402,-0.73392 -1.17077,-1.33678 -1.52026,-1.80858 -0.34949,-0.47181 -0.66402,-0.92614 -0.94361,-1.363 -1.2232,-1.90469 -1.95712,-3.52106 -2.20176,-4.8491 -0.19221,0.38443 -0.37569,0.76886 -0.55043,1.1533 l -0.0786,0.15727 h -0.0262 c -1.01351,2.86577 -1.529,5.09374 -1.54647,6.6839 0,0.50676 0.11358,0.9174 0.34075,1.23194 0.0699,0.0699 0.10484,0.12232 0.10484,0.15727 0.0175,0.0524 0,0.10484 -0.0524,0.15726 -0.10485,0.10485 -0.29706,0.15727 -0.57665,0.15727 -0.0349,0 -0.0699,-0.009 -0.10485,-0.0262 -0.10485,0 -0.24464,-0.0175 -0.41938,-0.0524 -0.15727,-0.0175 -0.43686,-0.0961 -0.83877,-0.2359 -0.38443,-0.13979 -0.73392,-0.31454 -1.04845,-0.52423 -0.29707,-0.19221 -0.57666,-0.48928 -0.83877,-0.89118 -0.26211,-0.38444 -0.41064,-0.83877 -0.44559,-1.363 -0.0524,-0.6116 0.035,-1.3892 0.26211,-2.33281 0.22717,-0.94361 0.49802,-1.8348 0.81256,-2.67356 0.33201,-0.83877 0.79507,-1.89596 1.3892,-3.17158 0.6116,-1.2931 1.10088,-2.29787 1.46784,-3.01431 0.38443,-0.73392 0.9174,-1.73869 1.5989,-3.01432 1.57268,-2.98809 2.42892,-4.79668 2.56871,-5.42575 -1.04845,0.19221 -2.3066,0.7776 -3.77444,1.75616 -1.45037,0.96108 -2.79588,2.09691 -4.03655,3.40748 -0.54171,0.57665 -1.0572,1.19699 -1.54648,1.86101 -0.4718,0.64655 -0.96108,1.41542 -1.46784,2.3066 -0.50675,0.89119 -0.88245,1.86975 -1.12709,2.93568 -0.24464,1.04846 -0.31454,2.08817 -0.20969,3.11916 0.0349,0.26211 0.0874,0.55044 0.15727,0.86497 0.0699,0.31454 0.19222,0.72518 0.36696,1.23194 0.19222,0.48928 0.47181,0.92613 0.83877,1.31057 0.36696,0.36696 0.80382,0.60286 1.31057,0.70771 l 0.0524,0.0262 v 0.0262 c 0.0175,0.10484 -0.0262,0.21842 -0.13106,0.34074 -0.29706,0.36696 -0.82129,0.57665 -1.57268,0.62908 -1.11835,0.0874 -2.14934,-0.22717 -3.09295,-0.94361 -1.29309,-0.97856 -2.03575,-2.53377 -2.22797,-4.66563 -0.0699,-0.62908 -0.0175,-1.30183 0.15727,-2.01828 0.17475,-0.71644 0.43686,-1.41541 0.78634,-2.09691 0.34949,-0.6815 0.72518,-1.34552 1.12709,-1.99207 0.41939,-0.64655 0.87372,-1.27562 1.363,-1.88722 0.50675,-0.6116 0.94361,-1.12709 1.31057,-1.54647 0.38443,-0.41938 0.76887,-0.82129 1.1533,-1.20573 1.7649,-1.79984 3.54727,-3.29389 5.34712,-4.48214 1.79985,-1.20573 3.25022,-1.86101 4.3511,-1.96586 0.40191,-0.0524 0.78634,0.0437 1.1533,0.28833 0.36696,0.22716 0.65528,0.51549 0.86497,0.86497 0.17475,0.0699 0.34949,0.17474 0.52423,0.31454 0.17475,0.13979 0.32328,0.29706 0.4456,0.4718 0.12232,0.17475 0.19222,0.34075 0.20969,0.49802 0.12232,0.71645 -0.28833,2.28039 -1.23194,4.69184 1.24067,-1.53773 2.55998,-2.83083 3.95792,-3.87929 1.41542,-1.06593 2.73473,-1.66879 3.95792,-1.80858 0.96109,-0.10485 1.80859,0.2359 2.54251,1.02224 0.75139,0.59413 1.17078,1.47658 1.25815,2.64735 0.0349,0.40191 -0.035,0.95235 -0.20969,1.65132 -0.15727,0.69897 -0.40191,1.48531 -0.73392,2.35903 -0.33201,0.87371 -0.77761,1.7649 -1.33679,2.67356 -0.55917,0.90866 -1.17077,1.75616 -1.83479,2.54251 -0.66403,0.76886 -1.46784,1.42415 -2.41145,1.96585 -0.92614,0.52423 -1.88723,0.83003 -2.88326,0.9174 h -0.41938 c -0.68149,0 -1.32804,-0.13979 -1.93964,-0.41938 1.18825,1.71248 2.69103,3.33758 4.50836,4.87532 1.8348,1.53773 3.41622,2.48134 4.74426,2.83083 1.03098,0.27959 1.91343,0.36696 2.64735,0.26211 0.75139,-0.0874 1.31057,-0.22716 1.67753,-0.41938 0.36696,-0.19222 0.58539,-0.39317 0.65529,-0.60286 0.0874,-0.19222 0.0961,-0.46307 0.0262,-0.81256 -0.0524,-0.22716 -0.0262,-0.37569 0.0786,-0.44559 0.10485,-0.0699 0.22717,-0.0612 0.36696,0.0262 z m -16.14622,-8.88566 c 0.13979,0.24464 0.26211,0.43685 0.36696,0.57665 0.10485,0.12232 0.27085,0.27958 0.49802,0.4718 0.22717,0.19222 0.52423,0.33201 0.89119,0.41938 0.36695,0.0699 0.79507,0.0874 1.28435,0.0524 0.78635,-0.0349 1.72996,-0.50675 2.83083,-1.41541 1.10088,-0.90866 2.10565,-2.04449 3.01432,-3.40748 0.57665,-0.85624 1.03971,-1.70374 1.3892,-2.54251 0.34949,-0.85624 0.56791,-1.65132 0.65528,-2.38524 0.0874,-0.73392 0.0437,-1.39794 -0.13105,-1.99206 -0.24464,-0.0699 -0.50675,-0.0874 -0.78634,-0.0524 -0.92614,0.10484 -1.98333,0.55917 -3.17158,1.36299 -1.17078,0.78634 -2.40272,1.91343 -3.69581,3.38127 -1.29309,1.46784 -2.48134,3.12789 -3.56475,4.98017 0.0349,0 0.0611,0.009 0.0786,0.0262 0.0874,0.0349 0.1398,0.0961 0.15727,0.18348 v 0.0262 l 0.0262,0.0262 c 0.0349,0.0524 0.0874,0.14852 0.15727,0.28832 z m 16.01516,-3.74823 c 0.71645,0.5417 0.89119,1.38046 0.52423,2.51629 -0.0524,0.20969 -0.27083,0.6815 -0.65529,1.41542 -0.43685,0.82129 -0.78634,1.50278 -1.04845,2.04448 -0.24464,0.54171 -0.5417,1.31931 -0.89119,2.33282 -0.34949,1.01351 -0.56792,1.94838 -0.65529,2.80462 -0.0175,0.13979 -0.0786,0.26211 -0.18348,0.36696 -0.0874,0.0699 -0.18347,0.11358 -0.28832,0.13106 h -0.0262 c -0.26211,0.0874 -0.51549,0.13105 -0.76013,0.13105 -0.38443,0 -0.71645,-0.11358 -0.99604,-0.34075 -0.64655,-0.52422 -0.83876,-1.4591 -0.57665,-2.80462 0.10485,-0.52422 0.47181,-1.43289 1.10088,-2.72598 0.15727,-0.36696 0.27959,-0.63781 0.36696,-0.81255 0.0874,-0.19222 0.20096,-0.46307 0.34075,-0.81256 0.15727,-0.34948 0.27085,-0.62907 0.34075,-0.83876 0.0874,-0.22717 0.17474,-0.49802 0.26211,-0.81256 0.10485,-0.33201 0.16601,-0.62033 0.18348,-0.86497 0.0349,-0.26212 0.0524,-0.53297 0.0524,-0.81256 0.0175,-0.27958 0,-0.55043 -0.0524,-0.81255 -0.0349,-0.17474 0.035,-0.32327 0.20969,-0.44559 0.19222,-0.15727 0.59413,-0.21843 1.20573,-0.18348 0.62907,0.035 1.14456,0.20969 1.54647,0.52423 z m 1.33678,-6.81497 c 0.38443,0.20969 0.64655,0.48928 0.78634,0.83877 0.13979,0.33201 0.13979,0.69023 0,1.07466 -0.0524,0.10485 -0.18346,0.32328 -0.39317,0.65529 -0.78634,1.20572 -1.16204,2.06196 -1.12709,2.56872 0.0175,0.13979 -0.0437,0.26211 -0.18348,0.36696 -0.0699,0.0699 -0.14853,0.10484 -0.2359,0.10484 h -0.0262 c -0.0175,0 -0.0349,-0.009 -0.0524,-0.0262 -0.40191,0.0175 -0.75139,-0.14853 -1.04845,-0.49802 -0.48928,-0.61159 -0.6116,-1.39794 -0.36696,-2.35902 0.0874,-0.29706 0.25338,-0.76013 0.49802,-1.38921 0.26211,-0.62907 0.48928,-1.0834 0.68149,-1.36299 0.15727,-0.17474 0.36696,-0.25338 0.62908,-0.2359 0.27959,0.0175 0.55917,0.10484 0.83876,0.26211 z m 7.26058,6.57906 c 1.45037,-0.45433 2.42893,-0.15727 2.93568,0.89119 0.22717,0.5417 0.33201,1.17951 0.31453,1.91343 0,0.73392 -0.13979,1.54648 -0.41938,2.43766 -0.26211,0.89119 -0.58539,1.74743 -0.96982,2.56872 -0.38443,0.82129 -0.85624,1.59016 -1.41542,2.3066 -0.5417,0.71645 -1.09214,1.26689 -1.65131,1.65132 -0.45433,0.31454 -0.89119,0.47181 -1.31057,0.47181 -0.36696,0 -0.70771,-0.12232 -1.02225,-0.36696 -0.36696,-0.27959 -0.62907,-0.66403 -0.78634,-1.1533 -0.13979,-0.48928 -0.15726,-0.90867 -0.0524,-1.25815 0.0699,-0.17474 0.19221,-0.24464 0.36696,-0.20969 0.17474,0.0175 0.26211,0.11358 0.26211,0.28832 0,0.33201 0.0612,0.52423 0.18348,0.57665 0.12232,0.035 0.35822,-0.13979 0.70771,-0.52422 0.83877,-0.90867 1.55521,-2.23671 2.14933,-3.98414 0.59413,-1.74742 0.76013,-2.95315 0.49802,-3.61717 -0.0524,-0.13979 -0.11356,-0.20969 -0.18348,-0.20969 -0.0874,-0.0175 -0.2359,0.0612 -0.44559,0.2359 -0.20969,0.15727 -0.50676,0.47181 -0.89119,0.94361 -0.36696,0.47181 -0.75139,1.05719 -1.1533,1.75617 -0.38443,0.64654 -0.75139,1.32804 -1.10088,2.04448 -0.66403,1.60764 -1.16204,3.17158 -1.49405,4.69184 -0.0175,0.1398 -0.0786,0.26212 -0.18348,0.36696 -0.0874,0.0699 -0.18348,0.10485 -0.28833,0.10485 h -0.0262 c -0.24464,0.10485 -0.48928,0.15727 -0.73392,0.15727 -0.40191,0 -0.74265,-0.11358 -1.02224,-0.34075 -0.64655,-0.52423 -0.83003,-1.4591 -0.55044,-2.80462 0.0874,-0.4718 0.59413,-1.92217 1.52026,-4.35109 0.52423,-1.39794 0.93487,-2.50756 1.23194,-3.32885 0.31453,-0.83876 0.69023,-1.90469 1.12709,-3.19779 0.43685,-1.31057 0.73391,-2.40271 0.89118,-3.27643 0.17475,-0.89118 0.21843,-1.56394 0.13106,-2.01827 -0.0349,-0.17475 0.035,-0.31454 0.20969,-0.41939 0.19222,-0.17474 0.59413,-0.2359 1.20573,-0.18348 0.62907,0.035 1.13583,0.20096 1.52026,0.49802 0.71644,0.5417 0.89992,1.38921 0.55044,2.54251 -0.0524,0.15727 -0.31452,0.83876 -0.78635,2.04449 -1.04845,2.60366 -1.86101,4.70057 -2.43766,6.29073 1.13583,-2.04449 2.17555,-3.224 3.11916,-3.53854 z m 8.70221,-0.15727 c 1.55521,-0.43685 2.67356,-0.20095 3.35506,0.70771 0.41938,0.55918 0.59412,1.27562 0.52422,2.14934 -0.0524,0.87371 -0.33199,1.72121 -0.83876,2.5425 -0.34949,0.57665 -0.71645,1.03098 -1.10088,1.363 -0.36696,0.33201 -0.71645,0.5417 -1.04846,0.62907 -0.33201,0.0699 -0.61159,0.0961 -0.83876,0.0786 -0.22717,-0.0175 -0.43686,-0.0612 -0.62907,-0.13106 -0.62907,-0.24464 -1.08341,-0.69897 -1.363,-1.36299 -0.55917,1.34552 -0.76013,2.52503 -0.60286,3.53854 0.10485,0.75139 0.41065,1.19699 0.9174,1.33678 0.90866,0.24464 1.91343,-0.13979 3.01431,-1.1533 0.12232,-0.12232 0.25338,-0.12232 0.39317,0 0.13979,0.10484 0.16599,0.2359 0.0786,0.39317 -0.34949,0.6116 -0.92614,1.14456 -1.72996,1.59889 -0.80381,0.45434 -1.6251,0.6815 -2.46387,0.6815 -0.20969,0 -0.41064,-0.0175 -0.60286,-0.0524 -0.69897,-0.10484 -1.26689,-0.48054 -1.70374,-1.12709 -0.43686,-0.66402 -0.69024,-1.52026 -0.76013,-2.56872 -0.10485,-1.7649 0.28832,-3.4599 1.17951,-5.08501 1.01351,-1.85227 2.42019,-3.03178 4.22004,-3.53854 z m 1.91343,3.09295 c 0.0349,-0.52423 -0.0612,-0.85624 -0.28833,-0.99603 -0.13979,-0.0874 -0.34948,-0.0437 -0.62907,0.13105 -0.94361,0.57665 -1.75617,1.48532 -2.43766,2.72599 0.0349,0.34948 0.18346,0.6116 0.44559,0.78634 0.34949,0.20969 0.6815,0.24464 0.99604,0.10485 0.57665,-0.26212 1.03098,-0.65529 1.36299,-1.17952 0.33201,-0.52422 0.51549,-1.04845 0.55044,-1.57268 z m 7.18192,-2.69977 c 0.71645,0.5417 0.89119,1.38046 0.52423,2.51629 -0.0524,0.20969 -0.27083,0.6815 -0.65529,1.41542 -0.43685,0.82129 -0.78634,1.50278 -1.04845,2.04448 -0.24464,0.54171 -0.5417,1.31931 -0.89119,2.33282 -0.34949,1.01351 -0.56792,1.94838 -0.65529,2.80462 -0.0175,0.13979 -0.0786,0.26211 -0.18348,0.36696 -0.0874,0.0699 -0.18347,0.11358 -0.28832,0.13106 h -0.0262 c -0.26211,0.0874 -0.51549,0.13105 -0.76013,0.13105 -0.38443,0 -0.71645,-0.11358 -0.99604,-0.34075 -0.64655,-0.52422 -0.83876,-1.4591 -0.57665,-2.80462 0.10485,-0.52422 0.47181,-1.43289 1.10088,-2.72598 0.15727,-0.36696 0.27959,-0.63781 0.36696,-0.81255 0.0874,-0.19222 0.20096,-0.46307 0.34075,-0.81256 0.15727,-0.34948 0.27085,-0.62907 0.34075,-0.83876 0.0874,-0.22717 0.17474,-0.49802 0.26211,-0.81256 0.10485,-0.33201 0.16601,-0.62033 0.18348,-0.86497 0.0349,-0.26212 0.0524,-0.53297 0.0524,-0.81256 0.0175,-0.27958 0,-0.55043 -0.0524,-0.81255 -0.0349,-0.17474 0.035,-0.32327 0.20969,-0.44559 0.19222,-0.15727 0.59413,-0.21843 1.20573,-0.18348 0.62907,0.035 1.14456,0.20969 1.54647,0.52423 z m 1.33678,-6.81497 c 0.38443,0.20969 0.64655,0.48928 0.78634,0.83877 0.13979,0.33201 0.13979,0.69023 0,1.07466 -0.0524,0.10485 -0.18346,0.32328 -0.39317,0.65529 -0.78634,1.20572 -1.16204,2.06196 -1.12709,2.56872 0.0175,0.13979 -0.0437,0.26211 -0.18348,0.36696 -0.0699,0.0699 -0.14853,0.10484 -0.2359,0.10484 h -0.0262 c -0.0175,0 -0.0349,-0.009 -0.0524,-0.0262 -0.40191,0.0175 -0.7514,-0.14853 -1.04846,-0.49802 -0.48928,-0.61159 -0.6116,-1.39794 -0.36696,-2.35902 0.0874,-0.29706 0.25338,-0.76013 0.49802,-1.38921 0.26211,-0.62907 0.48928,-1.0834 0.68149,-1.36299 0.15727,-0.17474 0.36697,-0.25338 0.62908,-0.2359 0.27959,0.0175 0.55917,0.10484 0.83876,0.26211 z m 5.60927,9.30505 c 0.85624,-0.0175 1.39794,0.14853 1.62511,0.49802 0.0699,0.10484 0.11358,0.2359 0.13105,0.39317 0.0349,0.13979 0.0524,0.27958 0.0524,0.41938 0,0.13979 -0.0262,0.32327 -0.0786,0.55044 -0.0349,0.20969 -0.0786,0.39317 -0.13105,0.55044 -0.0349,0.13979 -0.10483,0.34075 -0.2097,0.60286 -0.0874,0.24464 -0.15726,0.44559 -0.20969,0.60286 -0.0524,0.1398 -0.13977,0.34949 -0.26211,0.62908 -0.10485,0.27958 -0.18348,0.48054 -0.2359,0.60286 -0.10485,0.26211 -0.20096,0.48928 -0.28833,0.68149 -0.0699,0.19222 -0.15726,0.43686 -0.26211,0.73392 -0.0874,0.27959 -0.16601,0.51549 -0.23591,0.70771 -0.0524,0.19222 -0.0961,0.38443 -0.13105,0.57665 -0.0349,0.19222 -0.0437,0.33201 -0.0262,0.41938 0.0349,0.0874 0.0961,0.13106 0.18348,0.13106 0.17474,-0.0175 0.33201,-0.0699 0.4718,-0.15727 0.0524,0.24464 0.009,0.51549 -0.13106,0.81256 -0.13979,0.27958 -0.32327,0.52422 -0.55043,0.73392 -0.22717,0.19221 -0.4456,0.30579 -0.65529,0.34074 -0.64655,0.12232 -1.20572,-0.11358 -1.67753,-0.7077 -0.24464,-0.27959 -0.39317,-0.62034 -0.44559,-1.02225 -0.0524,-0.41938 -0.0174,-0.9174 0.10484,-1.49405 0.13979,-0.57665 0.26211,-1.05719 0.36696,-1.44163 0.12232,-0.38443 0.31454,-0.91739 0.57665,-1.59889 0.0874,-0.24464 0.22717,-0.59413 0.41939,-1.04846 0.20969,-0.45433 0.35822,-0.81255 0.44559,-1.07466 0.10485,-0.26212 0.12231,-0.43686 0.0524,-0.52423 -0.0175,-0.035 -0.0611,-0.0524 -0.13106,-0.0524 -0.31453,-0.0175 -0.62033,-0.0612 -0.91739,-0.13106 -0.40191,0.80382 -1.0572,2.55998 -1.96586,5.26849 -0.13979,0.41938 -0.24464,0.73392 -0.31454,0.94361 -0.0699,0.20969 -0.15726,0.45433 -0.26211,0.73392 -0.10485,0.27959 -0.19222,0.49802 -0.26211,0.65529 -0.0524,0.15727 -0.0961,0.27085 -0.13106,0.34074 -0.29706,0.54171 -0.69897,0.81256 -1.20573,0.81256 -0.13979,0 -0.27959,-0.0175 -0.41938,-0.0524 -0.27959,-0.0874 -0.52423,-0.21843 -0.73392,-0.39317 -0.22717,-0.19222 -0.34075,-0.34949 -0.34075,-0.47181 0.0175,-0.0524 0.0611,-0.0874 0.13106,-0.10484 0.6815,-0.12232 1.87849,-2.69104 3.59096,-7.70615 0.15727,-0.48928 0.24465,-0.76014 0.26212,-0.81256 0.0175,-0.035 0.0349,-0.0786 0.0524,-0.13106 -0.34949,-0.4019 -0.56791,-0.89992 -0.65528,-1.49404 -0.10485,-0.76887 0.009,-1.53774 0.34074,-2.30661 0.33201,-0.76887 0.77761,-1.29309 1.33678,-1.57268 0.76887,-0.40191 1.47658,-0.20969 2.12313,0.57665 0.0175,0 0.0262,0.009 0.0262,0.0262 0.0175,0.035 0.0262,0.0786 0.0262,0.13106 0.0175,0.0349 0.0262,0.0699 0.0262,0.10484 0,0.0175 -0.009,0.0262 -0.0262,0.0262 -0.0175,0.10485 -0.10484,0.33201 -0.26211,0.6815 -0.71645,1.78237 -0.89993,2.94441 -0.55044,3.48611 0.22717,0.34949 0.6815,0.52423 1.36299,0.52423 z m 9.98656,-2.9881 c 0.92613,0.17474 1.55521,0.72518 1.88722,1.65132 0.29706,0.71644 0.36696,1.59016 0.20969,2.62114 -0.15727,1.03098 -0.43685,2.04449 -0.83876,3.04052 -0.40191,0.99603 -0.93487,1.93091 -1.5989,2.80462 -0.64655,0.87371 -1.32804,1.52026 -2.04449,1.93964 -0.57665,0.31454 -1.13582,0.47181 -1.67753,0.47181 -0.99603,0 -1.88722,-0.48054 -2.67356,-1.44163 -0.5417,-0.6815 -0.82129,-1.55521 -0.83876,-2.62114 0,-1.0834 0.20969,-2.17554 0.62907,-3.27642 0.43685,-1.10088 1.00477,-2.09692 1.70374,-2.9881 0.80381,-0.97856 1.66005,-1.66006 2.56872,-2.04449 0.92613,-0.38444 1.81732,-0.43686 2.67356,-0.15727 z m -1.62511,5.0588 c 0.24464,-0.83877 0.40191,-1.57268 0.47181,-2.20176 0.0699,-0.64655 0.0612,-0.99603 -0.0262,-1.04845 -0.0699,-0.10485 -0.14854,-0.16601 -0.23591,-0.18348 -0.22716,-0.0524 -0.49801,0.0175 -0.81255,0.20969 -0.0175,0.0175 -0.0349,0.0262 -0.0524,0.0262 -1.06593,0.87371 -1.88722,2.02701 -2.46387,3.4599 -0.55918,1.43289 -0.83003,2.69104 -0.81256,3.77444 0,0.26212 0.0175,0.48928 0.0524,0.6815 0.0524,0.17474 0.0961,0.29706 0.13105,0.36696 0.0349,0.0524 0.0611,0.0786 0.0786,0.0786 0.43685,0.15727 0.95234,-0.11358 1.54647,-0.81255 0.83877,-1.01351 1.54647,-2.46387 2.12312,-4.3511 z"
       id="text3"
       style="font-size:26.2114px;font-family:Abeganshi;-inkscape-font-specification:'Abeganshi, Normal';fill:#8b0081;stroke-width:2.18426"
       aria-label="Priscila Ribeiro"
       sodipodi:nodetypes="scccscscsccccccccsccsccccscccccccscccssccccccccccccccccccccccsccssssccccccsccccccccccsssccscccccccccscccccccccccccccccssccsccccccccsccccscccssscccsccccscccccccccsccssscccccssccccccssscccccccsccccccccccccsccccccccccccscssccccsssccccccccccccccccccsccsccscssccsccccscccccccccsccssssccccssccccccsssscccccsccccccccccsssscscccccscccsccsscccccssssccscsscccccccsscscsccsscsscsccccccccssccccccsccccccccsccscccccccccssccccccccsscccccccsscccsccccsccssssssccsccscccscccccssssccsccccscccccccccsccssscccccssccccccsscsccsccsccccsccsccccccccscscccccccccccccssssccccscccccccssccccssssccccssssccsccccscccccccccsccssssccccssccccccsssccscccccccccscccccccccccccccccssccsccccccccsccccscccsscsssccsccccccscccccccccccssc" /></g></svg>
